<?xml version="1.0" encoding="UTF-8" standalone="no"?>
<!DOCTYPE svg PUBLIC "-//W3C//DTD SVG 1.1//EN"
 "http://www.w3.org/Graphics/SVG/1.1/DTD/svg11.dtd">
<!-- Generated by graphviz version 2.38.0 (20140413.2041)
 -->
<!-- Title: G Pages: 1 -->
<svg width="76pt" height="133pt"
 viewBox="0.00 0.00 76.21 132.56" xmlns="http://www.w3.org/2000/svg" xmlns:xlink="http://www.w3.org/1999/xlink">
<g id="graph0" class="graph" transform="scale(1 1) rotate(0) translate(4 128.559)">
<title>G</title>
<polygon fill="white" stroke="none" points="-4,4 -4,-128.559 72.2116,-128.559 72.2116,4 -4,4"/>
<text text-anchor="start" x="8" y="-9.2" font-family="Times,serif" font-style="italic" font-size="14.00">fm = true</text>
<!-- 0 -->
<g id="node1" class="node"><title>0</title>
<ellipse fill="lightgrey" stroke="black" cx="34.1058" cy="-40.6794" rx="11.7898" ry="11.7898"/>
<ellipse fill="none" stroke="black" cx="34.1058" cy="-40.6794" rx="15.7597" ry="15.7597"/>
<text text-anchor="middle" x="34.1058" y="-36.4794" font-family="Times,serif" font-size="14.00">0</text>
</g>
<!-- 0&#45;&gt;0 -->
<g id="edge1" class="edge"><title>0&#45;&gt;0</title>
<path fill="none" stroke="black" d="M31.4691,-56.3618C30.8831,-65.736 31.762,-74.5588 34.1058,-74.5588 35.827,-74.5588 36.7582,-69.8006 36.8994,-63.5602"/>
<polygon fill="black" stroke="black" points="39.3445,-63.3068 36.7425,-56.3618 34.4457,-63.4136 39.3445,-63.3068"/>
<text text-anchor="middle" x="34.1058" y="-78.7588" font-family="Times,serif" font-size="14.00">i1,vi1</text>
</g>
<!-- 0&#45;&gt;0 -->
<g id="edge2" class="edge"><title>0&#45;&gt;0</title>
<path fill="none" stroke="black" d="M29.887,-56.0811C27.0745,-73.104 28.4808,-92.5588 34.1058,-92.5588 38.9398,-92.5588 40.6581,-78.1909 39.2608,-63.346"/>
<polygon fill="black" stroke="black" points="41.6492,-62.7105 38.3246,-56.0811 36.7894,-63.3369 41.6492,-62.7105"/>
<text text-anchor="middle" x="34.1058" y="-96.7588" font-family="Times,serif" font-size="14.00">i2,vi2</text>
</g>
</g>
</svg>