<?xml version="1.0" encoding="UTF-8" standalone="no"?>
<!DOCTYPE svg PUBLIC "-//W3C//DTD SVG 1.1//EN"
 "http://www.w3.org/Graphics/SVG/1.1/DTD/svg11.dtd">
<!-- Generated by graphviz version 2.38.0 (20140413.2041)
 -->
<!-- Title: G Pages: 1 -->
<svg width="144pt" height="201pt"
 viewBox="0.00 0.00 143.65 200.56" xmlns="http://www.w3.org/2000/svg" xmlns:xlink="http://www.w3.org/1999/xlink">
<g id="graph0" class="graph" transform="scale(1 1) rotate(0) translate(4 196.559)">
<title>G</title>
<polygon fill="white" stroke="none" points="-4,4 -4,-196.559 139.645,-196.559 139.645,4 -4,4"/>
<text text-anchor="start" x="8" y="-9.2" font-family="Times,serif" font-style="italic" font-size="14.00">fm = vo → (vi1 || vi2)</text>
<!-- 0 -->
<g id="node1" class="node"><title>0</title>
<ellipse fill="lightgrey" stroke="black" cx="67.8227" cy="-40.6794" rx="11.7898" ry="11.7898"/>
<ellipse fill="none" stroke="black" cx="67.8227" cy="-40.6794" rx="15.7597" ry="15.7597"/>
<text text-anchor="middle" x="67.8227" y="-36.4794" font-family="Times,serif" font-size="14.00">0</text>
</g>
<!-- 0&#45;&gt;0 -->
<g id="edge1" class="edge"><title>0&#45;&gt;0</title>
<path fill="none" stroke="black" d="M66.4051,-56.7131C66.1158,-65.9552 66.5883,-74.5588 67.8227,-74.5588 68.7292,-74.5588 69.2248,-69.9188 69.3096,-63.7935"/>
<polygon fill="black" stroke="black" points="71.7588,-63.6888 69.2403,-56.7131 66.859,-63.7368 71.7588,-63.6888"/>
<text text-anchor="middle" x="67.8227" y="-78.7588" font-family="Times,serif" font-size="14.00">i1/o,vi1 &amp;&amp; vo</text>
</g>
<!-- 0&#45;&gt;0 -->
<g id="edge2" class="edge"><title>0&#45;&gt;0</title>
<path fill="none" stroke="black" d="M65.5266,-56.6138C64.0886,-73.5072 64.8539,-92.5588 67.8227,-92.5588 70.374,-92.5588 71.298,-78.4887 70.5948,-63.8098"/>
<polygon fill="black" stroke="black" points="73.0256,-63.4368 70.1188,-56.6138 68.1362,-63.7603 73.0256,-63.4368"/>
<text text-anchor="middle" x="67.8227" y="-96.7588" font-family="Times,serif" font-size="14.00">i1,vi1 &amp;&amp; !vo</text>
</g>
<!-- 0&#45;&gt;0 -->
<g id="edge3" class="edge"><title>0&#45;&gt;0</title>
<path fill="none" stroke="black" d="M64.9937,-56.4728C62.0516,-80.3932 62.9946,-110.559 67.8227,-110.559 72.1793,-110.559 73.3726,-85.9972 71.4025,-63.6255"/>
<polygon fill="black" stroke="black" points="73.8191,-63.1787 70.6517,-56.4728 68.9459,-63.6903 73.8191,-63.1787"/>
<text text-anchor="middle" x="67.8227" y="-114.759" font-family="Times,serif" font-size="14.00">i2/o,vi2 &amp;&amp; vo</text>
</g>
<!-- 0&#45;&gt;0 -->
<g id="edge4" class="edge"><title>0&#45;&gt;0</title>
<path fill="none" stroke="black" d="M64.5946,-56.6469C60.0279,-87.2357 61.1039,-128.559 67.8227,-128.559 74.0428,-128.559 75.4267,-93.142 71.9744,-63.6138"/>
<polygon fill="black" stroke="black" points="74.3996,-63.2642 71.0508,-56.6469 69.5421,-63.9082 74.3996,-63.2642"/>
<text text-anchor="middle" x="67.8227" y="-132.759" font-family="Times,serif" font-size="14.00">i2,vi2 &amp;&amp; !vo</text>
</g>
</g>
</svg>