<?xml version="1.0" encoding="UTF-8" standalone="no"?>
<!DOCTYPE svg PUBLIC "-//W3C//DTD SVG 1.1//EN"
 "http://www.w3.org/Graphics/SVG/1.1/DTD/svg11.dtd">
<!-- Generated by graphviz version 2.38.0 (20140413.2041)
 -->
<!-- Title: G Pages: 1 -->
<svg width="80pt" height="167pt"
 viewBox="0.00 0.00 79.95 166.56" xmlns="http://www.w3.org/2000/svg" xmlns:xlink="http://www.w3.org/1999/xlink">
<g id="graph0" class="graph" transform="scale(1 1) rotate(0) translate(4 162.559)">
<title>G</title>
<polygon fill="white" stroke="none" points="-4,4 -4,-162.559 75.953,-162.559 75.953,4 -4,4"/>
<text text-anchor="start" x="9.8707" y="-9.2" font-family="Times,serif" font-style="italic" font-size="14.00">fm = true</text>
<!-- 0 -->
<g id="node1" class="node"><title>0</title>
<ellipse fill="lightgrey" stroke="black" cx="35.9765" cy="-40.6794" rx="11.7898" ry="11.7898"/>
<ellipse fill="none" stroke="black" cx="35.9765" cy="-40.6794" rx="15.7597" ry="15.7597"/>
<text text-anchor="middle" x="35.9765" y="-36.4794" font-family="Times,serif" font-size="14.00">0</text>
</g>
<!-- 0&#45;&gt;0 -->
<g id="edge1" class="edge"><title>0&#45;&gt;0</title>
<path fill="none" stroke="black" d="M34.2045,-56.7131C33.8429,-65.9552 34.4335,-74.5588 35.9765,-74.5588 37.1096,-74.5588 37.7292,-69.9188 37.8351,-63.7935"/>
<polygon fill="black" stroke="black" points="40.284,-63.6826 37.7485,-56.7131 35.3844,-63.7426 40.284,-63.6826"/>
<text text-anchor="middle" x="35.9765" y="-78.7588" font-family="Times,serif" font-size="14.00">i1/i2,v_i1_i2</text>
</g>
<!-- 0&#45;&gt;0 -->
<g id="edge2" class="edge"><title>0&#45;&gt;0</title>
<path fill="none" stroke="black" d="M33.1349,-56.3473C31.2988,-73.3061 32.246,-92.5588 35.9765,-92.5588 39.1824,-92.5588 40.3327,-78.3402 39.4275,-63.578"/>
<polygon fill="black" stroke="black" points="41.8474,-63.1167 38.8181,-56.3473 36.9648,-63.5283 41.8474,-63.1167"/>
<text text-anchor="middle" x="35.9765" y="-96.7588" font-family="Times,serif" font-size="14.00">i1,!true</text>
</g>
<!-- 0&#45;&gt;0 -->
<g id="edge3" class="edge"><title>0&#45;&gt;0</title>
<path fill="none" stroke="black" d="M32.4403,-56.4728C28.7626,-80.3932 29.9413,-110.559 35.9765,-110.559 41.4223,-110.559 42.9139,-85.9972 40.4512,-63.6255"/>
<polygon fill="black" stroke="black" points="42.8526,-63.0945 39.5127,-56.4728 37.9943,-63.732 42.8526,-63.0945"/>
<text text-anchor="middle" x="35.9765" y="-114.759" font-family="Times,serif" font-size="14.00">i2,!true</text>
</g>
</g>
</svg>