<?xml version="1.0" encoding="UTF-8" standalone="no"?>
<!DOCTYPE svg PUBLIC "-//W3C//DTD SVG 1.1//EN"
 "http://www.w3.org/Graphics/SVG/1.1/DTD/svg11.dtd">
<!-- Generated by graphviz version 2.38.0 (20140413.2041)
 -->
<!-- Title: G Pages: 1 -->
<svg width="470pt" height="115pt"
 viewBox="0.00 0.00 470.48 115.40" xmlns="http://www.w3.org/2000/svg" xmlns:xlink="http://www.w3.org/1999/xlink">
<g id="graph0" class="graph" transform="scale(1 1) rotate(0) translate(4 111.4)">
<title>G</title>
<polygon fill="white" stroke="none" points="-4,4 -4,-111.4 466.481,-111.4 466.481,4 -4,4"/>
<!-- 6 -->
<g id="node1" class="node"><title>6</title>
<polygon fill="none" stroke="black" points="26.7324,-34.3006 0.088808,-34.3006 0.088808,-3.69935 26.7324,-3.69935 26.7324,-34.3006"/>
<text text-anchor="middle" x="13.4106" y="-14.8" font-family="Times,serif" font-size="14.00">[.]</text>
</g>
<!-- 7 -->
<g id="node8" class="node"><title>7</title>
<polygon fill="none" stroke="black" points="96.1577,-58.3006 70.0399,-58.3006 70.0399,-27.6994 96.1577,-27.6994 96.1577,-58.3006"/>
<text text-anchor="middle" x="83.0988" y="-38.8" font-family="Times,serif" font-size="14.00">&#45;&lt;</text>
</g>
<!-- 6&#45;&gt;7 -->
<g id="edge5" class="edge"><title>6&#45;&gt;7</title>
<path fill="none" stroke="black" d="M26.8257,-23.402C36.9397,-26.9881 51.3911,-32.112 62.9805,-36.2213"/>
<polygon fill="black" stroke="black" points="62.3461,-38.5957 69.7624,-38.6259 63.9837,-33.9774 62.3461,-38.5957"/>
<text text-anchor="middle" x="48.3212" y="-37.2" font-family="Times,serif" font-size="14.00">o</text>
</g>
<!-- 0 -->
<g id="node2" class="node"><title>0</title>
<polygon fill="none" stroke="black" points="320.546,-107.301 296.867,-107.301 296.867,-76.6994 320.546,-76.6994 320.546,-107.301"/>
<text text-anchor="middle" x="308.706" y="-87.8" font-family="Times,serif" font-size="14.00">B</text>
</g>
<!-- 1 -->
<g id="node3" class="node"><title>1</title>
<polygon fill="none" stroke="black" points="462.652,-34.3006 438.974,-34.3006 438.974,-3.69935 462.652,-3.69935 462.652,-34.3006"/>
<text text-anchor="middle" x="450.813" y="-14.8" font-family="Times,serif" font-size="14.00">C</text>
</g>
<!-- 2 -->
<g id="node4" class="node"><title>2</title>
<polygon fill="none" stroke="black" points="170.537,-107.301 146.323,-107.301 146.323,-76.6994 170.537,-76.6994 170.537,-107.301"/>
<text text-anchor="middle" x="158.43" y="-87.8" font-family="Times,serif" font-size="14.00">A</text>
</g>
<!-- 3 -->
<g id="node5" class="node"><title>3</title>
<polygon fill="none" stroke="black" points="246.819,-58.3006 220.702,-58.3006 220.702,-27.6994 246.819,-27.6994 246.819,-58.3006"/>
<text text-anchor="middle" x="233.761" y="-38.8" font-family="Times,serif" font-size="14.00">&#45;&lt;</text>
</g>
<!-- 3&#45;&gt;0 -->
<g id="edge1" class="edge"><title>3&#45;&gt;0</title>
<path fill="none" stroke="black" d="M247.086,-51.6546C252.561,-55.4721 259.099,-59.9926 265.038,-64 273.416,-69.6527 282.798,-75.8268 290.628,-80.9354"/>
<polygon fill="black" stroke="black" points="289.579,-83.1762 296.782,-84.9413 292.252,-79.0695 289.579,-83.1762"/>
<text text-anchor="middle" x="272.038" y="-77.2" font-family="Times,serif" font-size="14.00">b</text>
</g>
<!-- 9 -->
<g id="node9" class="node"><title>9</title>
<polygon fill="none" stroke="black" points="320.53,-58.3006 296.883,-58.3006 296.883,-27.6994 320.53,-27.6994 320.53,-58.3006"/>
<text text-anchor="middle" x="308.706" y="-38.8" font-family="Times,serif" font-size="14.00">[]</text>
</g>
<!-- 3&#45;&gt;9 -->
<g id="edge8" class="edge"><title>3&#45;&gt;9</title>
<path fill="none" stroke="black" d="M247.135,-43C258.824,-43 276.49,-43 289.731,-43"/>
<polygon fill="black" stroke="black" points="289.938,-45.4501 296.938,-43 289.938,-40.5501 289.938,-45.4501"/>
<text text-anchor="middle" x="272.038" y="-47.2" font-family="Times,serif" font-size="14.00">o5</text>
</g>
<!-- 4 -->
<g id="node6" class="node"><title>4</title>
<polygon fill="none" stroke="black" points="170.253,-58.3006 146.606,-58.3006 146.606,-27.6994 170.253,-27.6994 170.253,-58.3006"/>
<text text-anchor="middle" x="158.43" y="-38.8" font-family="Times,serif" font-size="14.00">[]</text>
</g>
<!-- 4&#45;&gt;3 -->
<g id="edge2" class="edge"><title>4&#45;&gt;3</title>
<path fill="none" stroke="black" d="M170.25,-43C181.545,-43 199.497,-43 213.271,-43"/>
<polygon fill="black" stroke="black" points="213.425,-45.4501 220.425,-43 213.425,-40.5501 213.425,-45.4501"/>
<text text-anchor="middle" x="195.483" y="-47.2" font-family="Times,serif" font-size="14.00">o3</text>
</g>
<!-- 5 -->
<g id="node7" class="node"><title>5</title>
<polygon fill="none" stroke="black" points="396.711,-34.3006 370.594,-34.3006 370.594,-3.69935 396.711,-3.69935 396.711,-34.3006"/>
<text text-anchor="middle" x="383.652" y="-14.8" font-family="Times,serif" font-size="14.00">&#45;&lt;</text>
</g>
<!-- 5&#45;&gt;6 -->
<g id="edge4" class="edge"><title>5&#45;&gt;6</title>
<path fill="none" stroke="black" d="M370.513,-13.8082C356.237,-8.18262 331.692,-0 309.706,-0 82.0988,-0 82.0988,-0 82.0988,-0 65.4153,-0 47.2506,-5.41666 33.9426,-10.4657"/>
<polygon fill="black" stroke="black" points="32.6854,-8.32924 27.0893,-13.1961 34.499,-12.8813 32.6854,-8.32924"/>
<text text-anchor="middle" x="195.483" y="-4.2" font-family="Times,serif" font-size="14.00">i</text>
</g>
<!-- 5&#45;&gt;1 -->
<g id="edge3" class="edge"><title>5&#45;&gt;1</title>
<path fill="none" stroke="black" d="M396.909,-19C406.733,-19 420.664,-19 431.764,-19"/>
<polygon fill="black" stroke="black" points="431.911,-21.4501 438.911,-19 431.911,-16.5501 431.911,-21.4501"/>
<text text-anchor="middle" x="418.037" y="-23.2" font-family="Times,serif" font-size="14.00">c</text>
</g>
<!-- 7&#45;&gt;2 -->
<g id="edge6" class="edge"><title>7&#45;&gt;2</title>
<path fill="none" stroke="black" d="M96.4159,-51.6662C101.89,-55.4858 108.429,-60.0048 114.376,-64 122.703,-69.5933 132.026,-75.678 139.861,-80.742"/>
<polygon fill="black" stroke="black" points="138.827,-82.9903 146.038,-84.7224 141.481,-78.8713 138.827,-82.9903"/>
<text text-anchor="middle" x="121.376" y="-76.2" font-family="Times,serif" font-size="14.00">a</text>
</g>
<!-- 7&#45;&gt;4 -->
<g id="edge7" class="edge"><title>7&#45;&gt;4</title>
<path fill="none" stroke="black" d="M96.2079,-43C107.906,-43 125.776,-43 139.195,-43"/>
<polygon fill="black" stroke="black" points="139.501,-45.4501 146.501,-43 139.501,-40.5501 139.501,-45.4501"/>
<text text-anchor="middle" x="121.376" y="-47.2" font-family="Times,serif" font-size="14.00">o2</text>
</g>
<!-- 9&#45;&gt;5 -->
<g id="edge9" class="edge"><title>9&#45;&gt;5</title>
<path fill="none" stroke="black" d="M320.47,-39.4587C331.809,-35.7279 349.895,-29.7777 363.645,-25.2538"/>
<polygon fill="black" stroke="black" points="364.498,-27.5524 370.381,-23.0374 362.966,-22.8979 364.498,-27.5524"/>
<text text-anchor="middle" x="345.375" y="-38.2" font-family="Times,serif" font-size="14.00">o6</text>
</g>
</g>
</svg>