<?xml version="1.0" encoding="UTF-8" standalone="no"?>
<!DOCTYPE svg PUBLIC "-//W3C//DTD SVG 1.1//EN"
 "http://www.w3.org/Graphics/SVG/1.1/DTD/svg11.dtd">
<!-- Generated by graphviz version 2.38.0 (20140413.2041)
 -->
<!-- Title: G Pages: 1 -->
<svg width="116pt" height="167pt"
 viewBox="0.00 0.00 115.73 166.56" xmlns="http://www.w3.org/2000/svg" xmlns:xlink="http://www.w3.org/1999/xlink">
<g id="graph0" class="graph" transform="scale(1 1) rotate(0) translate(4 162.559)">
<title>G</title>
<polygon fill="white" stroke="none" points="-4,4 -4,-162.559 111.734,-162.559 111.734,4 -4,4"/>
<text text-anchor="start" x="27.7613" y="-9.2" font-family="Times,serif" font-style="italic" font-size="14.00">fm = true</text>
<!-- 0 -->
<g id="node1" class="node"><title>0</title>
<ellipse fill="lightgrey" stroke="black" cx="53.8671" cy="-40.6794" rx="11.7898" ry="11.7898"/>
<ellipse fill="none" stroke="black" cx="53.8671" cy="-40.6794" rx="15.7597" ry="15.7597"/>
<text text-anchor="middle" x="53.8671" y="-36.4794" font-family="Times,serif" font-size="14.00">0</text>
</g>
<!-- 0&#45;&gt;0 -->
<g id="edge1" class="edge"><title>0&#45;&gt;0</title>
<path fill="none" stroke="black" d="M52.0951,-56.7131C51.7335,-65.9552 52.3241,-74.5588 53.8671,-74.5588 55.0002,-74.5588 55.6198,-69.9188 55.7257,-63.7935"/>
<polygon fill="black" stroke="black" points="58.1746,-63.6826 55.6391,-56.7131 53.275,-63.7426 58.1746,-63.6826"/>
<text text-anchor="middle" x="53.8671" y="-78.7588" font-family="Times,serif" font-size="14.00">i1/i2,v_i1 &amp;&amp; v_i2</text>
</g>
<!-- 0&#45;&gt;0 -->
<g id="edge2" class="edge"><title>0&#45;&gt;0</title>
<path fill="none" stroke="black" d="M51.0255,-56.3473C49.1894,-73.3061 50.1366,-92.5588 53.8671,-92.5588 57.073,-92.5588 58.2233,-78.3402 57.3181,-63.578"/>
<polygon fill="black" stroke="black" points="59.738,-63.1167 56.7087,-56.3473 54.8554,-63.5283 59.738,-63.1167"/>
<text text-anchor="middle" x="53.8671" y="-96.7588" font-family="Times,serif" font-size="14.00">i1,v_i1 &amp;&amp; !v_i2</text>
</g>
<!-- 0&#45;&gt;0 -->
<g id="edge3" class="edge"><title>0&#45;&gt;0</title>
<path fill="none" stroke="black" d="M50.3309,-56.4728C46.6532,-80.3932 47.8319,-110.559 53.8671,-110.559 59.3129,-110.559 60.8045,-85.9972 58.3418,-63.6255"/>
<polygon fill="black" stroke="black" points="60.7432,-63.0945 57.4033,-56.4728 55.8849,-63.732 60.7432,-63.0945"/>
<text text-anchor="middle" x="53.8671" y="-114.759" font-family="Times,serif" font-size="14.00">i2,v_i2 &amp;&amp; !v_i1</text>
</g>
</g>
</svg>