<?xml version="1.0" encoding="UTF-8" standalone="no"?>
<!DOCTYPE svg PUBLIC "-//W3C//DTD SVG 1.1//EN"
 "http://www.w3.org/Graphics/SVG/1.1/DTD/svg11.dtd">
<!-- Generated by graphviz version 2.38.0 (20140413.2041)
 -->
<!-- Title: G Pages: 1 -->
<svg width="192pt" height="201pt"
 viewBox="0.00 0.00 191.95 200.56" xmlns="http://www.w3.org/2000/svg" xmlns:xlink="http://www.w3.org/1999/xlink">
<g id="graph0" class="graph" transform="scale(1 1) rotate(0) translate(4 196.559)">
<title>G</title>
<polygon fill="white" stroke="none" points="-4,4 -4,-196.559 187.946,-196.559 187.946,4 -4,4"/>
<text text-anchor="start" x="65.8672" y="-9.2" font-family="Times,serif" font-style="italic" font-size="14.00">fm = true</text>
<!-- 0 -->
<g id="node1" class="node"><title>0</title>
<ellipse fill="lightgrey" stroke="black" cx="91.973" cy="-40.6794" rx="11.7898" ry="11.7898"/>
<ellipse fill="none" stroke="black" cx="91.973" cy="-40.6794" rx="15.7597" ry="15.7597"/>
<text text-anchor="middle" x="91.973" y="-36.4794" font-family="Times,serif" font-size="14.00">0</text>
</g>
<!-- 0&#45;&gt;0 -->
<g id="edge1" class="edge"><title>0&#45;&gt;0</title>
<path fill="none" stroke="black" d="M90.5554,-56.7131C90.2661,-65.9552 90.7386,-74.5588 91.973,-74.5588 92.8795,-74.5588 93.3751,-69.9188 93.4599,-63.7935"/>
<polygon fill="black" stroke="black" points="95.9091,-63.6888 93.3906,-56.7131 91.0093,-63.7368 95.9091,-63.6888"/>
<text text-anchor="middle" x="91.973" y="-78.7588" font-family="Times,serif" font-size="14.00">i/o1/o2,v_i &amp;&amp; (v_o1 &amp;&amp; v_o2)</text>
</g>
<!-- 0&#45;&gt;0 -->
<g id="edge2" class="edge"><title>0&#45;&gt;0</title>
<path fill="none" stroke="black" d="M89.6769,-56.6138C88.2389,-73.5072 89.0043,-92.5588 91.973,-92.5588 94.5243,-92.5588 95.4483,-78.4887 94.7451,-63.8098"/>
<polygon fill="black" stroke="black" points="97.1759,-63.4368 94.2691,-56.6138 92.2865,-63.7603 97.1759,-63.4368"/>
<text text-anchor="middle" x="91.973" y="-96.7588" font-family="Times,serif" font-size="14.00">i,v_i</text>
</g>
<!-- 0&#45;&gt;0 -->
<g id="edge3" class="edge"><title>0&#45;&gt;0</title>
<path fill="none" stroke="black" d="M89.144,-56.4728C86.2019,-80.3932 87.1449,-110.559 91.973,-110.559 96.3296,-110.559 97.5229,-85.9972 95.5528,-63.6255"/>
<polygon fill="black" stroke="black" points="97.9694,-63.1787 94.802,-56.4728 93.0962,-63.6903 97.9694,-63.1787"/>
<text text-anchor="middle" x="91.973" y="-114.759" font-family="Times,serif" font-size="14.00">i/o1,v_i &amp;&amp; v_o1</text>
</g>
<!-- 0&#45;&gt;0 -->
<g id="edge4" class="edge"><title>0&#45;&gt;0</title>
<path fill="none" stroke="black" d="M88.7449,-56.6469C84.1782,-87.2357 85.2543,-128.559 91.973,-128.559 98.1931,-128.559 99.577,-93.142 96.1247,-63.6138"/>
<polygon fill="black" stroke="black" points="98.5499,-63.2642 95.2011,-56.6469 93.6924,-63.9082 98.5499,-63.2642"/>
<text text-anchor="middle" x="91.973" y="-132.759" font-family="Times,serif" font-size="14.00">i/o2,v_i &amp;&amp; v_o2</text>
</g>
</g>
</svg>