<?xml version="1.0" encoding="UTF-8" standalone="no"?>
<!DOCTYPE svg PUBLIC "-//W3C//DTD SVG 1.1//EN"
 "http://www.w3.org/Graphics/SVG/1.1/DTD/svg11.dtd">
<!-- Generated by graphviz version 2.38.0 (20140413.2041)
 -->
<!-- Title: G Pages: 1 -->
<svg width="111pt" height="201pt"
 viewBox="0.00 0.00 111.06 200.56" xmlns="http://www.w3.org/2000/svg" xmlns:xlink="http://www.w3.org/1999/xlink">
<g id="graph0" class="graph" transform="scale(1 1) rotate(0) translate(4 196.559)">
<title>G</title>
<polygon fill="white" stroke="none" points="-4,4 -4,-196.559 107.062,-196.559 107.062,4 -4,4"/>
<text text-anchor="start" x="25.4254" y="-9.2" font-family="Times,serif" font-style="italic" font-size="14.00">fm = true</text>
<!-- 0 -->
<g id="node1" class="node"><title>0</title>
<ellipse fill="lightgrey" stroke="black" cx="51.5312" cy="-40.6794" rx="11.7898" ry="11.7898"/>
<ellipse fill="none" stroke="black" cx="51.5312" cy="-40.6794" rx="15.7597" ry="15.7597"/>
<text text-anchor="middle" x="51.5312" y="-36.4794" font-family="Times,serif" font-size="14.00">0</text>
</g>
<!-- 0&#45;&gt;0 -->
<g id="edge1" class="edge"><title>0&#45;&gt;0</title>
<path fill="none" stroke="black" d="M50.1136,-56.7131C49.8243,-65.9552 50.2968,-74.5588 51.5312,-74.5588 52.4377,-74.5588 52.9333,-69.9188 53.0181,-63.7935"/>
<polygon fill="black" stroke="black" points="55.4673,-63.6888 52.9488,-56.7131 50.5675,-63.7368 55.4673,-63.6888"/>
<text text-anchor="middle" x="51.5312" y="-78.7588" font-family="Times,serif" font-size="14.00">i/o1/o2,v_i_o1_o2</text>
</g>
<!-- 0&#45;&gt;0 -->
<g id="edge2" class="edge"><title>0&#45;&gt;0</title>
<path fill="none" stroke="black" d="M49.2351,-56.6138C47.7971,-73.5072 48.5624,-92.5588 51.5312,-92.5588 54.0825,-92.5588 55.0065,-78.4887 54.3033,-63.8098"/>
<polygon fill="black" stroke="black" points="56.7341,-63.4368 53.8273,-56.6138 51.8447,-63.7603 56.7341,-63.4368"/>
<text text-anchor="middle" x="51.5312" y="-96.7588" font-family="Times,serif" font-size="14.00">i,!true</text>
</g>
<!-- 0&#45;&gt;0 -->
<g id="edge3" class="edge"><title>0&#45;&gt;0</title>
<path fill="none" stroke="black" d="M48.7022,-56.4728C45.7601,-80.3932 46.7031,-110.559 51.5312,-110.559 55.8878,-110.559 57.0811,-85.9972 55.111,-63.6255"/>
<polygon fill="black" stroke="black" points="57.5276,-63.1787 54.3602,-56.4728 52.6544,-63.6903 57.5276,-63.1787"/>
<text text-anchor="middle" x="51.5312" y="-114.759" font-family="Times,serif" font-size="14.00">i/o1,!true</text>
</g>
<!-- 0&#45;&gt;0 -->
<g id="edge4" class="edge"><title>0&#45;&gt;0</title>
<path fill="none" stroke="black" d="M48.3031,-56.6469C43.7364,-87.2357 44.8124,-128.559 51.5312,-128.559 57.7513,-128.559 59.1352,-93.142 55.6829,-63.6138"/>
<polygon fill="black" stroke="black" points="58.1081,-63.2642 54.7593,-56.6469 53.2506,-63.9082 58.1081,-63.2642"/>
<text text-anchor="middle" x="51.5312" y="-132.759" font-family="Times,serif" font-size="14.00">i/o2,!true</text>
</g>
</g>
</svg>