<?xml version="1.0" encoding="UTF-8" standalone="no"?>
<!DOCTYPE svg PUBLIC "-//W3C//DTD SVG 1.1//EN"
 "http://www.w3.org/Graphics/SVG/1.1/DTD/svg11.dtd">
<!-- Generated by graphviz version 2.38.0 (20140413.2041)
 -->
<!-- Title: G Pages: 1 -->
<svg width="94pt" height="133pt"
 viewBox="0.00 0.00 93.95 132.56" xmlns="http://www.w3.org/2000/svg" xmlns:xlink="http://www.w3.org/1999/xlink">
<g id="graph0" class="graph" transform="scale(1 1) rotate(0) translate(4 128.559)">
<title>G</title>
<polygon fill="white" stroke="none" points="-4,4 -4,-128.559 89.953,-128.559 89.953,4 -4,4"/>
<text text-anchor="start" x="16.8707" y="-9.2" font-family="Times,serif" font-style="italic" font-size="14.00">fm = true</text>
<!-- 0 -->
<g id="node1" class="node"><title>0</title>
<ellipse fill="lightgrey" stroke="black" cx="42.9765" cy="-40.6794" rx="11.7898" ry="11.7898"/>
<ellipse fill="none" stroke="black" cx="42.9765" cy="-40.6794" rx="15.7597" ry="15.7597"/>
<text text-anchor="middle" x="42.9765" y="-36.4794" font-family="Times,serif" font-size="14.00">0</text>
</g>
<!-- 0&#45;&gt;0 -->
<g id="edge1" class="edge"><title>0&#45;&gt;0</title>
<path fill="none" stroke="black" d="M40.3398,-56.3618C39.7538,-65.736 40.6328,-74.5588 42.9765,-74.5588 44.6977,-74.5588 45.6289,-69.8006 45.7701,-63.5602"/>
<polygon fill="black" stroke="black" points="48.2152,-63.3068 45.6132,-56.3618 43.3164,-63.4136 48.2152,-63.3068"/>
<text text-anchor="middle" x="42.9765" y="-78.7588" font-family="Times,serif" font-size="14.00">i/o,v_i &amp;&amp; v_o</text>
</g>
<!-- 0&#45;&gt;0 -->
<g id="edge2" class="edge"><title>0&#45;&gt;0</title>
<path fill="none" stroke="black" d="M38.7578,-56.0811C35.9453,-73.104 37.3515,-92.5588 42.9765,-92.5588 47.8105,-92.5588 49.5288,-78.1909 48.1315,-63.346"/>
<polygon fill="black" stroke="black" points="50.5199,-62.7105 47.1953,-56.0811 45.6601,-63.3369 50.5199,-62.7105"/>
<text text-anchor="middle" x="42.9765" y="-96.7588" font-family="Times,serif" font-size="14.00">i,v_i</text>
</g>
</g>
</svg>