<?xml version="1.0" encoding="UTF-8" standalone="no"?>
<!DOCTYPE svg PUBLIC "-//W3C//DTD SVG 1.1//EN"
 "http://www.w3.org/Graphics/SVG/1.1/DTD/svg11.dtd">
<!-- Generated by graphviz version 2.38.0 (20140413.2041)
 -->
<!-- Title: G Pages: 1 -->
<svg width="150pt" height="337pt"
 viewBox="0.00 0.00 149.95 336.56" xmlns="http://www.w3.org/2000/svg" xmlns:xlink="http://www.w3.org/1999/xlink">
<g id="graph0" class="graph" transform="scale(1 1) rotate(0) translate(4 332.559)">
<title>G</title>
<polygon fill="white" stroke="none" points="-4,4 -4,-332.559 145.953,-332.559 145.953,4 -4,4"/>
<text text-anchor="start" x="44.8707" y="-9.2" font-family="Times,serif" font-style="italic" font-size="14.00">fm = true</text>
<!-- 0 -->
<g id="node1" class="node"><title>0</title>
<ellipse fill="lightgrey" stroke="black" cx="70.9765" cy="-40.6794" rx="11.7898" ry="11.7898"/>
<ellipse fill="none" stroke="black" cx="70.9765" cy="-40.6794" rx="15.7597" ry="15.7597"/>
<text text-anchor="middle" x="70.9765" y="-36.4794" font-family="Times,serif" font-size="14.00">0</text>
</g>
<!-- 0&#45;&gt;0 -->
<g id="edge1" class="edge"><title>0&#45;&gt;0</title>
<path fill="none" stroke="black" d="M69.5589,-56.7131C69.2696,-65.9552 69.7421,-74.5588 70.9765,-74.5588 71.883,-74.5588 72.3786,-69.9188 72.4634,-63.7935"/>
<polygon fill="black" stroke="black" points="74.9126,-63.6888 72.3941,-56.7131 70.0128,-63.7368 74.9126,-63.6888"/>
<text text-anchor="middle" x="70.9765" y="-78.7588" font-family="Times,serif" font-size="14.00">i/o1/o2,!true</text>
</g>
<!-- 0&#45;&gt;0 -->
<g id="edge2" class="edge"><title>0&#45;&gt;0</title>
<path fill="none" stroke="black" d="M68.6804,-56.6138C67.2424,-73.5072 68.0078,-92.5588 70.9765,-92.5588 73.5278,-92.5588 74.4518,-78.4887 73.7486,-63.8098"/>
<polygon fill="black" stroke="black" points="76.1794,-63.4368 73.2726,-56.6138 71.29,-63.7603 76.1794,-63.4368"/>
<text text-anchor="middle" x="70.9765" y="-96.7588" font-family="Times,serif" font-size="14.00">i/o2,!true</text>
</g>
<!-- 0&#45;&gt;0 -->
<g id="edge3" class="edge"><title>0&#45;&gt;0</title>
<path fill="none" stroke="black" d="M68.1475,-56.4728C65.2054,-80.3932 66.1484,-110.559 70.9765,-110.559 75.3331,-110.559 76.5264,-85.9972 74.5563,-63.6255"/>
<polygon fill="black" stroke="black" points="76.9729,-63.1787 73.8055,-56.4728 72.0997,-63.6903 76.9729,-63.1787"/>
<text text-anchor="middle" x="70.9765" y="-114.759" font-family="Times,serif" font-size="14.00">i,!true</text>
</g>
<!-- 0&#45;&gt;0 -->
<g id="edge4" class="edge"><title>0&#45;&gt;0</title>
<path fill="none" stroke="black" d="M67.7484,-56.6469C63.1817,-87.2357 64.2578,-128.559 70.9765,-128.559 77.1966,-128.559 78.5805,-93.142 75.1282,-63.6138"/>
<polygon fill="black" stroke="black" points="77.5534,-63.2642 74.2046,-56.6469 72.6959,-63.9082 77.5534,-63.2642"/>
<text text-anchor="middle" x="70.9765" y="-132.759" font-family="Times,serif" font-size="14.00">i/o1/o3,!true</text>
</g>
<!-- 0&#45;&gt;0 -->
<g id="edge5" class="edge"><title>0&#45;&gt;0</title>
<path fill="none" stroke="black" d="M67.5213,-56.3611C61.1529,-93.4769 62.3046,-146.559 70.9765,-146.559 79.1064,-146.559 80.6268,-99.9048 75.5377,-63.4905"/>
<polygon fill="black" stroke="black" points="77.9259,-62.9028 74.4317,-56.3611 73.0838,-63.6539 77.9259,-62.9028"/>
<text text-anchor="middle" x="70.9765" y="-150.759" font-family="Times,serif" font-size="14.00">i/o1,!true</text>
</g>
<!-- 0&#45;&gt;0 -->
<g id="edge6" class="edge"><title>0&#45;&gt;0</title>
<path fill="none" stroke="black" d="M67.3061,-56.41C59.1358,-99.9094 60.3593,-164.559 70.9765,-164.559 81.0338,-164.559 82.662,-106.548 75.8611,-63.4556"/>
<polygon fill="black" stroke="black" points="78.2502,-62.8922 74.6469,-56.41 73.4214,-63.7244 78.2502,-62.8922"/>
<text text-anchor="middle" x="70.9765" y="-168.759" font-family="Times,serif" font-size="14.00">i/o1/o2/o3,v_i_o1_o2_o3</text>
</g>
<!-- 0&#45;&gt;0 -->
<g id="edge7" class="edge"><title>0&#45;&gt;0</title>
<path fill="none" stroke="black" d="M67.1441,-56.4039C57.1209,-106.21 58.3984,-182.559 70.9765,-182.559 82.965,-182.559 84.6875,-113.2 76.1439,-63.5722"/>
<polygon fill="black" stroke="black" points="78.4992,-62.8369 74.8089,-56.4039 73.682,-63.7341 78.4992,-62.8369"/>
<text text-anchor="middle" x="70.9765" y="-186.759" font-family="Times,serif" font-size="14.00">i/o2/o3,!true</text>
</g>
<!-- 0&#45;&gt;0 -->
<g id="edge8" class="edge"><title>0&#45;&gt;0</title>
<path fill="none" stroke="black" d="M67.0515,-56.2181C55.1057,-112.264 56.414,-200.559 70.9765,-200.559 84.9417,-200.559 86.7177,-119.359 76.3046,-63.2689"/>
<polygon fill="black" stroke="black" points="78.6706,-62.6054 74.9015,-56.2181 73.8649,-63.5617 78.6706,-62.6054"/>
<text text-anchor="middle" x="70.9765" y="-204.759" font-family="Times,serif" font-size="14.00">i/o3,!true</text>
</g>
</g>
</svg>