<?xml version="1.0" encoding="UTF-8" standalone="no"?>
<!DOCTYPE svg PUBLIC "-//W3C//DTD SVG 1.1//EN"
 "http://www.w3.org/Graphics/SVG/1.1/DTD/svg11.dtd">
<!-- Generated by graphviz version 2.38.0 (20140413.2041)
 -->
<!-- Title: G Pages: 1 -->
<svg width="171pt" height="201pt"
 viewBox="0.00 0.00 170.95 200.56" xmlns="http://www.w3.org/2000/svg" xmlns:xlink="http://www.w3.org/1999/xlink">
<g id="graph0" class="graph" transform="scale(1 1) rotate(0) translate(4 196.559)">
<title>G</title>
<polygon fill="white" stroke="none" points="-4,4 -4,-196.559 166.946,-196.559 166.946,4 -4,4"/>
<text text-anchor="start" x="20.0956" y="-9.2" font-family="Times,serif" font-style="italic" font-size="14.00">fm = (vo1 || vo2) → vi</text>
<!-- 0 -->
<g id="node1" class="node"><title>0</title>
<ellipse fill="lightgrey" stroke="black" cx="81.473" cy="-40.6794" rx="11.7898" ry="11.7898"/>
<ellipse fill="none" stroke="black" cx="81.473" cy="-40.6794" rx="15.7597" ry="15.7597"/>
<text text-anchor="middle" x="81.473" y="-36.4794" font-family="Times,serif" font-size="14.00">0</text>
</g>
<!-- 0&#45;&gt;0 -->
<g id="edge1" class="edge"><title>0&#45;&gt;0</title>
<path fill="none" stroke="black" d="M80.0554,-56.7131C79.7661,-65.9552 80.2386,-74.5588 81.473,-74.5588 82.3795,-74.5588 82.8751,-69.9188 82.9599,-63.7935"/>
<polygon fill="black" stroke="black" points="85.4091,-63.6888 82.8906,-56.7131 80.5093,-63.7368 85.4091,-63.6888"/>
<text text-anchor="middle" x="81.473" y="-78.7588" font-family="Times,serif" font-size="14.00">i,vi &amp;&amp; !(vo1 || vo2)</text>
</g>
<!-- 0&#45;&gt;0 -->
<g id="edge2" class="edge"><title>0&#45;&gt;0</title>
<path fill="none" stroke="black" d="M79.1769,-56.6138C77.7389,-73.5072 78.5043,-92.5588 81.473,-92.5588 84.0243,-92.5588 84.9483,-78.4887 84.2451,-63.8098"/>
<polygon fill="black" stroke="black" points="86.6759,-63.4368 83.7691,-56.6138 81.7865,-63.7603 86.6759,-63.4368"/>
<text text-anchor="middle" x="81.473" y="-96.7588" font-family="Times,serif" font-size="14.00">i/o1,vi &amp;&amp; vo1 &amp;&amp; !vo2</text>
</g>
<!-- 0&#45;&gt;0 -->
<g id="edge3" class="edge"><title>0&#45;&gt;0</title>
<path fill="none" stroke="black" d="M78.644,-56.4728C75.7019,-80.3932 76.6449,-110.559 81.473,-110.559 85.8296,-110.559 87.0229,-85.9972 85.0528,-63.6255"/>
<polygon fill="black" stroke="black" points="87.4694,-63.1787 84.302,-56.4728 82.5962,-63.6903 87.4694,-63.1787"/>
<text text-anchor="middle" x="81.473" y="-114.759" font-family="Times,serif" font-size="14.00">i/o2,vi &amp;&amp; vo2 &amp;&amp; !vo1</text>
</g>
<!-- 0&#45;&gt;0 -->
<g id="edge4" class="edge"><title>0&#45;&gt;0</title>
<path fill="none" stroke="black" d="M78.2449,-56.6469C73.6782,-87.2357 74.7543,-128.559 81.473,-128.559 87.6931,-128.559 89.077,-93.142 85.6247,-63.6138"/>
<polygon fill="black" stroke="black" points="88.0499,-63.2642 84.7011,-56.6469 83.1924,-63.9082 88.0499,-63.2642"/>
<text text-anchor="middle" x="81.473" y="-132.759" font-family="Times,serif" font-size="14.00">i/o1/o2,vi &amp;&amp; (vo1 &amp;&amp; vo2)</text>
</g>
</g>
</svg>