<?xml version="1.0" encoding="UTF-8" standalone="no"?>
<!DOCTYPE svg PUBLIC "-//W3C//DTD SVG 1.1//EN"
 "http://www.w3.org/Graphics/SVG/1.1/DTD/svg11.dtd">
<!-- Generated by graphviz version 2.38.0 (20140413.2041)
 -->
<!-- Title: G Pages: 1 -->
<svg width="239pt" height="337pt"
 viewBox="0.00 0.00 238.62 336.56" xmlns="http://www.w3.org/2000/svg" xmlns:xlink="http://www.w3.org/1999/xlink">
<g id="graph0" class="graph" transform="scale(1 1) rotate(0) translate(4 332.559)">
<title>G</title>
<polygon fill="white" stroke="none" points="-4,4 -4,-332.559 234.618,-332.559 234.618,4 -4,4"/>
<text text-anchor="start" x="37.1329" y="-9.2" font-family="Times,serif" font-style="italic" font-size="14.00">fm = (vo1 || vo2 || vo3) → vi</text>
<!-- 0 -->
<g id="node1" class="node"><title>0</title>
<ellipse fill="lightgrey" stroke="black" cx="115.309" cy="-40.6794" rx="11.7898" ry="11.7898"/>
<ellipse fill="none" stroke="black" cx="115.309" cy="-40.6794" rx="15.7597" ry="15.7597"/>
<text text-anchor="middle" x="115.309" y="-36.4794" font-family="Times,serif" font-size="14.00">0</text>
</g>
<!-- 0&#45;&gt;0 -->
<g id="edge1" class="edge"><title>0&#45;&gt;0</title>
<path fill="none" stroke="black" d="M113.891,-56.7131C113.602,-65.9552 114.075,-74.5588 115.309,-74.5588 116.215,-74.5588 116.711,-69.9188 116.796,-63.7935"/>
<polygon fill="black" stroke="black" points="119.245,-63.6888 116.727,-56.7131 114.345,-63.7368 119.245,-63.6888"/>
<text text-anchor="middle" x="115.309" y="-78.7588" font-family="Times,serif" font-size="14.00">i/o2/o3,vi &amp;&amp; vo2 &amp;&amp; vo3 &amp;&amp; !vo1</text>
</g>
<!-- 0&#45;&gt;0 -->
<g id="edge2" class="edge"><title>0&#45;&gt;0</title>
<path fill="none" stroke="black" d="M113.013,-56.6138C111.575,-73.5072 112.34,-92.5588 115.309,-92.5588 117.86,-92.5588 118.784,-78.4887 118.081,-63.8098"/>
<polygon fill="black" stroke="black" points="120.512,-63.4368 117.605,-56.6138 115.622,-63.7603 120.512,-63.4368"/>
<text text-anchor="middle" x="115.309" y="-96.7588" font-family="Times,serif" font-size="14.00">i/o3,vi &amp;&amp; vo3 &amp;&amp; !(vo1 || vo2)</text>
</g>
<!-- 0&#45;&gt;0 -->
<g id="edge3" class="edge"><title>0&#45;&gt;0</title>
<path fill="none" stroke="black" d="M112.48,-56.4728C109.538,-80.3932 110.481,-110.559 115.309,-110.559 119.666,-110.559 120.859,-85.9972 118.889,-63.6255"/>
<polygon fill="black" stroke="black" points="121.305,-63.1787 118.138,-56.4728 116.432,-63.6903 121.305,-63.1787"/>
<text text-anchor="middle" x="115.309" y="-114.759" font-family="Times,serif" font-size="14.00">i,vi &amp;&amp; !(vo1 || vo2 || vo3)</text>
</g>
<!-- 0&#45;&gt;0 -->
<g id="edge4" class="edge"><title>0&#45;&gt;0</title>
<path fill="none" stroke="black" d="M112.081,-56.6469C107.514,-87.2357 108.59,-128.559 115.309,-128.559 121.529,-128.559 122.913,-93.142 119.461,-63.6138"/>
<polygon fill="black" stroke="black" points="121.886,-63.2642 118.537,-56.6469 117.028,-63.9082 121.886,-63.2642"/>
<text text-anchor="middle" x="115.309" y="-132.759" font-family="Times,serif" font-size="14.00">i/o1/o2/o3,vi &amp;&amp; (vo1 &amp;&amp; vo2 &amp;&amp; vo3)</text>
</g>
<!-- 0&#45;&gt;0 -->
<g id="edge5" class="edge"><title>0&#45;&gt;0</title>
<path fill="none" stroke="black" d="M111.854,-56.3611C105.485,-93.4769 106.637,-146.559 115.309,-146.559 123.439,-146.559 124.959,-99.9048 119.87,-63.4905"/>
<polygon fill="black" stroke="black" points="122.258,-62.9028 118.764,-56.3611 117.416,-63.6539 122.258,-62.9028"/>
<text text-anchor="middle" x="115.309" y="-150.759" font-family="Times,serif" font-size="14.00">i/o1/o3,vi &amp;&amp; vo1 &amp;&amp; vo3 &amp;&amp; !vo2</text>
</g>
<!-- 0&#45;&gt;0 -->
<g id="edge6" class="edge"><title>0&#45;&gt;0</title>
<path fill="none" stroke="black" d="M111.639,-56.41C103.468,-99.9094 104.692,-164.559 115.309,-164.559 125.366,-164.559 126.994,-106.548 120.193,-63.4556"/>
<polygon fill="black" stroke="black" points="122.583,-62.8922 118.979,-56.41 117.754,-63.7244 122.583,-62.8922"/>
<text text-anchor="middle" x="115.309" y="-168.759" font-family="Times,serif" font-size="14.00">i/o2,vi &amp;&amp; vo2 &amp;&amp; !(vo1 || vo3)</text>
</g>
<!-- 0&#45;&gt;0 -->
<g id="edge7" class="edge"><title>0&#45;&gt;0</title>
<path fill="none" stroke="black" d="M111.477,-56.4039C101.453,-106.21 102.731,-182.559 115.309,-182.559 127.297,-182.559 129.02,-113.2 120.476,-63.5722"/>
<polygon fill="black" stroke="black" points="122.832,-62.8369 119.141,-56.4039 118.014,-63.7341 122.832,-62.8369"/>
<text text-anchor="middle" x="115.309" y="-186.759" font-family="Times,serif" font-size="14.00">i/o1,vi &amp;&amp; vo1 &amp;&amp; !(vo2 || vo3)</text>
</g>
<!-- 0&#45;&gt;0 -->
<g id="edge8" class="edge"><title>0&#45;&gt;0</title>
<path fill="none" stroke="black" d="M111.384,-56.2181C99.4381,-112.264 100.746,-200.559 115.309,-200.559 129.274,-200.559 131.05,-119.359 120.637,-63.2689"/>
<polygon fill="black" stroke="black" points="123.003,-62.6054 119.234,-56.2181 118.197,-63.5617 123.003,-62.6054"/>
<text text-anchor="middle" x="115.309" y="-204.759" font-family="Times,serif" font-size="14.00">i/o1/o2,vi &amp;&amp; vo1 &amp;&amp; vo2 &amp;&amp; !vo3</text>
</g>
</g>
</svg>