<?xml version="1.0" encoding="UTF-8" standalone="no"?>
<!DOCTYPE svg PUBLIC "-//W3C//DTD SVG 1.1//EN"
 "http://www.w3.org/Graphics/SVG/1.1/DTD/svg11.dtd">
<!-- Generated by graphviz version 2.38.0 (20140413.2041)
 -->
<!-- Title: G Pages: 1 -->
<svg width="453pt" height="110pt"
 viewBox="0.00 0.00 453.02 109.80" xmlns="http://www.w3.org/2000/svg" xmlns:xlink="http://www.w3.org/1999/xlink">
<g id="graph0" class="graph" transform="scale(1 1) rotate(0) translate(4 105.8)">
<title>G</title>
<polygon fill="white" stroke="none" points="-4,4 -4,-105.8 449.02,-105.8 449.02,4 -4,4"/>
<!-- 0 -->
<g id="node1" class="node"><title>0</title>
<polygon fill="none" stroke="black" points="23.484,-34.3006 -0.162843,-34.3006 -0.162843,-3.69935 23.484,-3.69935 23.484,-34.3006"/>
<text text-anchor="middle" x="11.6606" y="-14.8" font-family="Times,serif" font-size="14.00">[]</text>
</g>
<!-- 2 -->
<g id="node3" class="node"><title>2</title>
<polygon fill="none" stroke="black" points="99.6577,-58.3006 73.5399,-58.3006 73.5399,-27.6994 99.6577,-27.6994 99.6577,-58.3006"/>
<text text-anchor="middle" x="86.5988" y="-38.8" font-family="Times,serif" font-size="14.00">&#45;&lt;</text>
</g>
<!-- 0&#45;&gt;2 -->
<g id="edge1" class="edge"><title>0&#45;&gt;2</title>
<path fill="none" stroke="black" d="M23.4229,-22.5413C34.7611,-26.2721 52.8444,-32.2223 66.5931,-36.7462"/>
<polygon fill="black" stroke="black" points="65.9138,-39.1019 73.3289,-38.9626 67.4454,-34.4474 65.9138,-39.1019"/>
<text text-anchor="middle" x="48.3212" y="-38.2" font-family="Times,serif" font-size="14.00">o3</text>
</g>
<!-- 1 -->
<g id="node2" class="node"><title>1</title>
<polygon fill="none" stroke="black" points="173.36,-100.301 149.714,-100.301 149.714,-69.6994 173.36,-69.6994 173.36,-100.301"/>
<text text-anchor="middle" x="161.537" y="-80.8" font-family="Times,serif" font-size="14.00">[]</text>
</g>
<!-- 3 -->
<g id="node4" class="node"><title>3</title>
<polygon fill="none" stroke="black" points="249.534,-100.301 223.416,-100.301 223.416,-69.6994 249.534,-69.6994 249.534,-100.301"/>
<text text-anchor="middle" x="236.475" y="-80.8" font-family="Times,serif" font-size="14.00">&#45;&lt;</text>
</g>
<!-- 1&#45;&gt;3 -->
<g id="edge3" class="edge"><title>1&#45;&gt;3</title>
<path fill="none" stroke="black" d="M173.299,-85C184.534,-85 202.39,-85 216.09,-85"/>
<polygon fill="black" stroke="black" points="216.205,-87.4501 223.205,-85 216.205,-82.5501 216.205,-87.4501"/>
<text text-anchor="middle" x="198.198" y="-89.2" font-family="Times,serif" font-size="14.00">o6</text>
</g>
<!-- 2&#45;&gt;1 -->
<g id="edge2" class="edge"><title>2&#45;&gt;1</title>
<path fill="none" stroke="black" d="M99.9718,-50.1247C111.987,-57.0435 130.319,-67.5994 143.667,-75.2857"/>
<polygon fill="black" stroke="black" points="142.481,-77.43 149.77,-78.7999 144.926,-73.1836 142.481,-77.43"/>
<text text-anchor="middle" x="124.876" y="-72.2" font-family="Times,serif" font-size="14.00">o5</text>
</g>
<!-- b -->
<g id="node7" class="node"><title>b</title>
<ellipse fill="none" stroke="black" cx="161.537" cy="-40" rx="11" ry="11.76"/>
<text text-anchor="middle" x="161.537" y="-35.8" font-family="Times,serif" font-size="14.00">b</text>
</g>
<!-- 2&#45;&gt;b -->
<g id="edge7" class="edge"><title>2&#45;&gt;b</title>
<path fill="none" stroke="black" d="M99.9718,-42.4911C111.795,-42.0048 129.735,-41.2669 143.024,-40.7203"/>
<polygon fill="black" stroke="black" points="143.336,-43.1597 150.229,-40.424 143.135,-38.2638 143.336,-43.1597"/>
</g>
<!-- 4 -->
<g id="node5" class="node"><title>4</title>
<polygon fill="none" stroke="black" points="316.376,-100.301 289.732,-100.301 289.732,-69.6994 316.376,-69.6994 316.376,-100.301"/>
<text text-anchor="middle" x="303.054" y="-80.8" font-family="Times,serif" font-size="14.00">[.]</text>
</g>
<!-- 3&#45;&gt;4 -->
<g id="edge4" class="edge"><title>3&#45;&gt;4</title>
<path fill="none" stroke="black" d="M249.622,-85C258.795,-85 271.579,-85 282.227,-85"/>
<polygon fill="black" stroke="black" points="282.521,-87.4501 289.521,-85 282.521,-82.5501 282.521,-87.4501"/>
<text text-anchor="middle" x="269.698" y="-89.2" font-family="Times,serif" font-size="14.00">i</text>
</g>
<!-- c -->
<g id="node8" class="node"><title>c</title>
<ellipse fill="none" stroke="black" cx="303.054" cy="-40" rx="11" ry="11.76"/>
<text text-anchor="middle" x="303.054" y="-35.8" font-family="Times,serif" font-size="14.00">c</text>
</g>
<!-- 3&#45;&gt;c -->
<g id="edge8" class="edge"><title>3&#45;&gt;c</title>
<path fill="none" stroke="black" d="M249.622,-76.5358C260.35,-69.0602 276.018,-58.1428 287.431,-50.1898"/>
<polygon fill="black" stroke="black" points="288.933,-52.1293 293.275,-46.1172 286.131,-48.1091 288.933,-52.1293"/>
</g>
<!-- 5 -->
<g id="node6" class="node"><title>5</title>
<polygon fill="none" stroke="black" points="385.801,-44.3006 359.683,-44.3006 359.683,-13.6994 385.801,-13.6994 385.801,-44.3006"/>
<text text-anchor="middle" x="372.742" y="-24.8" font-family="Times,serif" font-size="14.00">&#45;&lt;</text>
</g>
<!-- 4&#45;&gt;5 -->
<g id="edge5" class="edge"><title>4&#45;&gt;5</title>
<path fill="none" stroke="black" d="M316.469,-74.7287C326.965,-66.0454 342.131,-53.4978 353.923,-43.7419"/>
<polygon fill="black" stroke="black" points="355.574,-45.556 359.406,-39.2061 352.451,-41.7806 355.574,-45.556"/>
<text text-anchor="middle" x="337.965" y="-63.2" font-family="Times,serif" font-size="14.00">o</text>
</g>
<!-- 5&#45;&gt;0 -->
<g id="edge6" class="edge"><title>5&#45;&gt;0</title>
<path fill="none" stroke="black" d="M359.443,-20.1415C346.369,-11.6131 324.765,-0 304.054,-0 85.5988,-0 85.5988,-0 85.5988,-0 66.2568,-0 44.9344,-6.33426 30.3668,-11.6881"/>
<polygon fill="black" stroke="black" points="29.4563,-9.41315 23.7963,-14.2055 31.2095,-13.9888 29.4563,-9.41315"/>
<text text-anchor="middle" x="198.198" y="-4.2" font-family="Times,serif" font-size="14.00">o2</text>
</g>
<!-- a -->
<g id="node9" class="node"><title>a</title>
<ellipse fill="none" stroke="black" cx="434.02" cy="-29" rx="11" ry="11.76"/>
<text text-anchor="middle" x="434.02" y="-24.8" font-family="Times,serif" font-size="14.00">a</text>
</g>
<!-- 5&#45;&gt;a -->
<g id="edge9" class="edge"><title>5&#45;&gt;a</title>
<path fill="none" stroke="black" d="M386.025,-29C394.587,-29 406.134,-29 415.639,-29"/>
<polygon fill="black" stroke="black" points="415.728,-31.4501 422.728,-29 415.728,-26.5501 415.728,-31.4501"/>
</g>
</g>
</svg>