<?xml version="1.0" encoding="UTF-8" standalone="no"?>
<!DOCTYPE svg PUBLIC "-//W3C//DTD SVG 1.1//EN"
 "http://www.w3.org/Graphics/SVG/1.1/DTD/svg11.dtd">
<!-- Generated by graphviz version 2.38.0 (20140413.2041)
 -->
<!-- Title: G Pages: 1 -->
<svg width="97pt" height="133pt"
 viewBox="0.00 0.00 96.84 132.56" xmlns="http://www.w3.org/2000/svg" xmlns:xlink="http://www.w3.org/1999/xlink">
<g id="graph0" class="graph" transform="scale(1 1) rotate(0) translate(4 128.559)">
<title>G</title>
<polygon fill="white" stroke="none" points="-4,4 -4,-128.559 92.8364,-128.559 92.8364,4 -4,4"/>
<text text-anchor="start" x="8" y="-9.2" font-family="Times,serif" font-style="italic" font-size="14.00">fm = vo → vi</text>
<!-- 0 -->
<g id="node1" class="node"><title>0</title>
<ellipse fill="lightgrey" stroke="black" cx="44.4182" cy="-40.6794" rx="11.7898" ry="11.7898"/>
<ellipse fill="none" stroke="black" cx="44.4182" cy="-40.6794" rx="15.7597" ry="15.7597"/>
<text text-anchor="middle" x="44.4182" y="-36.4794" font-family="Times,serif" font-size="14.00">0</text>
</g>
<!-- 0&#45;&gt;0 -->
<g id="edge1" class="edge"><title>0&#45;&gt;0</title>
<path fill="none" stroke="black" d="M41.7815,-56.3618C41.1955,-65.736 42.0744,-74.5588 44.4182,-74.5588 46.1394,-74.5588 47.0706,-69.8006 47.2118,-63.5602"/>
<polygon fill="black" stroke="black" points="49.6569,-63.3068 47.0549,-56.3618 44.7581,-63.4136 49.6569,-63.3068"/>
<text text-anchor="middle" x="44.4182" y="-78.7588" font-family="Times,serif" font-size="14.00">i/o,vi &amp;&amp; vo</text>
</g>
<!-- 0&#45;&gt;0 -->
<g id="edge2" class="edge"><title>0&#45;&gt;0</title>
<path fill="none" stroke="black" d="M40.1994,-56.0811C37.3869,-73.104 38.7932,-92.5588 44.4182,-92.5588 49.2522,-92.5588 50.9705,-78.1909 49.5732,-63.346"/>
<polygon fill="black" stroke="black" points="51.9616,-62.7105 48.6369,-56.0811 47.1018,-63.3369 51.9616,-62.7105"/>
<text text-anchor="middle" x="44.4182" y="-96.7588" font-family="Times,serif" font-size="14.00">i,vi &amp;&amp; !vo</text>
</g>
</g>
</svg>