<svg xmlns="http://www.w3.org/2000/svg" xmlns:xlink="http://www.w3.org/1999/xlink" width="1269pt" height="347pt" viewBox="0.00 0.00 1268.50 346.60">
<g id="graph0" class="graph" transform="scale(1 1) rotate(0) translate(4 342.6)">
<title>G</title>
<polygon fill="white" stroke="none" points="-4,4 -4,-342.6 1264.5,-342.6 1264.5,4 -4,4"></polygon>
<text text-anchor="start" x="604.145" y="-9.2" font-family="Times,serif" font-style="italic" font-size="14.00">fm = true</text>
<!-- 0 -->
<g id="node1" class="node"><title>0</title>
<ellipse fill="lightgrey" stroke="black" cx="15.8794" cy="-162.8" rx="11.7898" ry="11.7898"></ellipse>
<ellipse fill="none" stroke="black" cx="15.8794" cy="-162.8" rx="15.7597" ry="15.7597"></ellipse>
<text text-anchor="middle" x="15.8794" y="-158.6" font-family="Times,serif" font-size="14.00">0</text>
</g>
<!-- 1 -->
<g id="node7" class="node"><title>1</title>
<ellipse fill="none" stroke="black" cx="109.864" cy="-222.8" rx="11" ry="11.76"></ellipse>
<text text-anchor="middle" x="109.864" y="-218.6" font-family="Times,serif" font-size="14.00">1</text>
</g>
<!-- 0&#45;&gt;1 -->
<g id="edge5" class="edge"><title>0-&gt;1</title>
<path fill="none" stroke="black" d="M26.5675,-174.968C32.6569,-182.027 40.9987,-190.7 49.7588,-196.8 62.9859,-206.011 79.9996,-213.077 92.374,-217.502"></path>
<polygon fill="black" stroke="black" points="91.6438,-219.841 99.0601,-219.798 93.2355,-215.207 91.6438,-219.841"></polygon>
<text text-anchor="middle" x="65.3114" y="-218" font-family="Times,serif" font-size="14.00">apply</text>
</g>
<!-- 6 -->
<g id="node2" class="node"><title>6</title>
<ellipse fill="none" stroke="black" cx="1029.8" cy="-180.8" rx="11" ry="11.76"></ellipse>
<text text-anchor="middle" x="1029.8" y="-176.6" font-family="Times,serif" font-size="14.00">6</text>
<text text-anchor="middle" x="989.904" y="-156.321" font-family="Times,serif" font-size="14.00">tapl &lt;= 31</text>
</g>
<!-- 6&#45;&gt;0 -->
<g id="edge12" class="edge"><title>6-&gt;0</title>
<path fill="none" stroke="black" d="M1022.54,-190.051C1000.51,-221.42 922.927,-321.8 832.204,-321.8 108.864,-321.8 108.864,-321.8 108.864,-321.8 46.7618,-321.8 25.914,-229.797 19.4922,-185.761"></path>
<polygon fill="black" stroke="black" points="21.8926,-185.231 18.5173,-178.627 17.0377,-185.894 21.8926,-185.231"></polygon>
<text text-anchor="middle" x="480.044" y="-326" font-family="Times,serif" font-size="14.00">cancelapp,apl</text>
</g>
<!-- 7 -->
<g id="node8" class="node"><title>7</title>
<ellipse fill="none" stroke="black" cx="1249.5" cy="-64.8" rx="11" ry="11.76"></ellipse>
<text text-anchor="middle" x="1249.5" y="-60.6" font-family="Times,serif" font-size="14.00">7</text>
</g>
<!-- 6&#45;&gt;7 -->
<g id="edge9" class="edge"><title>6-&gt;7</title>
<path fill="none" stroke="black" d="M1039.87,-175.963C1073.41,-158.092 1190.6,-95.6505 1233.02,-73.0473"></path>
<polygon fill="black" stroke="black" points="1234.36,-75.1113 1239.39,-69.6573 1232.06,-70.7869 1234.36,-75.1113"></polygon>
<text text-anchor="middle" x="1139.65" y="-169" font-family="Times,serif" font-size="14.00">tapl &lt;= 30,appeal,tapl:=0,apl</text>
</g>
<!-- 2 -->
<g id="node3" class="node"><title>2</title>
<ellipse fill="none" stroke="black" cx="286.933" cy="-222.8" rx="11" ry="11.76"></ellipse>
<text text-anchor="middle" x="286.933" y="-218.6" font-family="Times,serif" font-size="14.00">2</text>
</g>
<!-- 5 -->
<g id="node4" class="node"><title>5</title>
<ellipse fill="none" stroke="black" cx="831.204" cy="-180.8" rx="11" ry="11.76"></ellipse>
<text text-anchor="middle" x="831.204" y="-176.6" font-family="Times,serif" font-size="14.00">5</text>
</g>
<!-- 2&#45;&gt;5 -->
<g id="edge1" class="edge"><title>2-&gt;5</title>
<path fill="none" stroke="black" d="M297.971,-223.742C351.169,-228.432 605.138,-247.017 802.204,-194.8 806.512,-193.659 810.933,-191.812 814.953,-189.829"></path>
<polygon fill="black" stroke="black" points="816.23,-191.925 821.248,-186.464 813.919,-187.603 816.23,-191.925"></polygon>
<text text-anchor="middle" x="590.04" y="-234" font-family="Times,serif" font-size="14.00">submit,tsub:=0,!pa</text>
</g>
<!-- 3 -->
<g id="node6" class="node"><title>3</title>
<ellipse fill="none" stroke="black" cx="480.044" cy="-258.8" rx="11" ry="11.76"></ellipse>
<text text-anchor="middle" x="480.044" y="-254.6" font-family="Times,serif" font-size="14.00">3</text>
</g>
<!-- 2&#45;&gt;3 -->
<g id="edge4" class="edge"><title>2-&gt;3</title>
<path fill="none" stroke="black" d="M297.742,-225.429C303.097,-226.819 309.856,-228.502 315.933,-229.8 368.864,-241.108 432.115,-251.461 461.912,-256.153"></path>
<polygon fill="black" stroke="black" points="461.773,-258.611 469.068,-257.272 462.53,-253.77 461.773,-258.611"></polygon>
<text text-anchor="middle" x="369.846" y="-255" font-family="Times,serif" font-size="14.00">payapp,tpay:=0,pa</text>
</g>
<!-- 5&#45;&gt;0 -->
<g id="edge2" class="edge"><title>5-&gt;0</title>
<path fill="none" stroke="black" d="M827.187,-169.361C823.402,-157.342 815.709,-138.819 802.204,-128.8 755.425,-94.0952 732,-102.8 673.753,-102.8 108.864,-102.8 108.864,-102.8 108.864,-102.8 77.2433,-102.8 47.988,-127.981 31.3039,-145.717"></path>
<polygon fill="black" stroke="black" points="29.4434,-144.121 26.541,-150.946 33.066,-147.421 29.4434,-144.121"></polygon>
<text text-anchor="middle" x="369.846" y="-107" font-family="Times,serif" font-size="14.00">accept,tsub:=0</text>
</g>
<!-- 5&#45;&gt;0 -->
<g id="edge6" class="edge"><title>5-&gt;0</title>
<path fill="none" stroke="black" d="M820.19,-180.578C737.029,-178.738 160.979,-165.989 39.3854,-163.298"></path>
<polygon fill="black" stroke="black" points="39.096,-160.841 32.0435,-163.136 38.9875,-165.74 39.096,-160.841"></polygon>
<text text-anchor="middle" x="369.846" y="-176" font-family="Times,serif" font-size="14.00">incomplete,tsub:=0</text>
</g>
<!-- 5&#45;&gt;0 -->
<g id="edge8" class="edge"><title>5-&gt;0</title>
<path fill="none" stroke="black" d="M820.519,-176.733C796.266,-166.93 730.774,-142.8 673.753,-142.8 108.864,-142.8 108.864,-142.8 108.864,-142.8 84.0487,-142.8 56.3097,-149.836 37.8458,-155.562"></path>
<polygon fill="black" stroke="black" points="36.9294,-153.283 31.0117,-157.753 38.4255,-157.949 36.9294,-153.283"></polygon>
<text text-anchor="middle" x="369.846" y="-147" font-family="Times,serif" font-size="14.00">reject,tsub:=0,!apl</text>
</g>
<!-- 5&#45;&gt;6 -->
<g id="edge15" class="edge"><title>5-&gt;6</title>
<path fill="none" stroke="black" d="M842.223,-180.8C873.766,-180.8 971.3,-180.8 1011.35,-180.8"></path>
<polygon fill="black" stroke="black" points="1011.56,-183.25 1018.56,-180.8 1011.56,-178.35 1011.56,-183.25"></polygon>
<text text-anchor="middle" x="930.5" y="-185" font-family="Times,serif" font-size="14.00">reject,tapl:=0,tsub:=0,apl</text>
</g>
<!-- 4 -->
<g id="node5" class="node"><title>4</title>
<ellipse fill="none" stroke="black" cx="672.753" cy="-258.8" rx="11" ry="11.76"></ellipse>
<text text-anchor="middle" x="672.753" y="-254.6" font-family="Times,serif" font-size="14.00">4</text>
</g>
<!-- 4&#45;&gt;5 -->
<g id="edge3" class="edge"><title>4-&gt;5</title>
<path fill="none" stroke="black" d="M683.906,-259.489C707.236,-260.537 765.475,-260.049 802.204,-232.8 813.388,-224.503 820.586,-210.374 824.879,-198.936"></path>
<polygon fill="black" stroke="black" points="827.223,-199.655 827.187,-192.239 822.59,-198.059 827.223,-199.655"></polygon>
<text text-anchor="middle" x="751.978" y="-264" font-family="Times,serif" font-size="14.00">submit,tsub:=0,pa</text>
</g>
<!-- 3&#45;&gt;0 -->
<g id="edge13" class="edge"><title>3-&gt;0</title>
<path fill="none" stroke="black" d="M468.944,-261.431C457.928,-264.155 439.731,-268.226 423.759,-269.8 279.598,-284.003 242.092,-265.482 98.864,-243.8 76.9259,-240.479 67.2621,-248.436 49.7588,-234.8 34.2479,-222.716 25.8044,-201.647 21.3736,-185.413"></path>
<polygon fill="black" stroke="black" points="23.6814,-184.541 19.6092,-178.343 18.9272,-185.728 23.6814,-184.541"></polygon>
<text text-anchor="middle" x="198.398" y="-274" font-family="Times,serif" font-size="14.00">cancelpay,tpay:=0,pa</text>
</g>
<!-- 3&#45;&gt;4 -->
<g id="edge7" class="edge"><title>3-&gt;4</title>
<path fill="none" stroke="black" d="M491.297,-258.8C522.341,-258.8 615.558,-258.8 654.433,-258.8"></path>
<polygon fill="black" stroke="black" points="654.449,-261.25 661.449,-258.8 654.449,-256.35 654.449,-261.25"></polygon>
<text text-anchor="middle" x="590.04" y="-263" font-family="Times,serif" font-size="14.00">paidapp,tpay:=0,pa</text>
</g>
<!-- 1&#45;&gt;2 -->
<g id="edge11" class="edge"><title>1-&gt;2</title>
<path fill="none" stroke="black" d="M121.033,-222.8C149.8,-222.8 232.014,-222.8 268.327,-222.8"></path>
<polygon fill="black" stroke="black" points="268.735,-225.25 275.735,-222.8 268.735,-220.35 268.735,-225.25"></polygon>
<text text-anchor="middle" x="198.398" y="-227" font-family="Times,serif" font-size="14.00">submitDocs</text>
</g>
<!-- 7&#45;&gt;0 -->
<g id="edge10" class="edge"><title>7-&gt;0</title>
<path fill="none" stroke="black" d="M1238.08,-64.8C1206.73,-64.8 1110.55,-64.8 1030.8,-64.8 108.864,-64.8 108.864,-64.8 108.864,-64.8 66.9549,-64.8 38.5753,-113.035 25.3691,-141.825"></path>
<polygon fill="black" stroke="black" points="23.0787,-140.947 22.4863,-148.34 27.5595,-142.93 23.0787,-140.947"></polygon>
<text text-anchor="middle" x="590.04" y="-69" font-family="Times,serif" font-size="14.00">accept,tapl:=0,apl</text>
</g>
<!-- 7&#45;&gt;0 -->
<g id="edge14" class="edge"><title>7-&gt;0</title>
<path fill="none" stroke="black" d="M1238.64,-61.6613C1208.1,-52.2316 1112.27,-24.8 1030.8,-24.8 108.864,-24.8 108.864,-24.8 108.864,-24.8 54.2026,-24.8 30.0268,-100.691 21.182,-139.915"></path>
<polygon fill="black" stroke="black" points="18.6841,-139.88 19.613,-147.238 23.4753,-140.907 18.6841,-139.88"></polygon>
<text text-anchor="middle" x="590.04" y="-29" font-family="Times,serif" font-size="14.00">reject,tapl:=0,apl</text>
</g>
</g>
</svg>