<svg xmlns="http://www.w3.org/2000/svg" xmlns:xlink="http://www.w3.org/1999/xlink" width="165pt" height="105pt" viewBox="0.00 0.00 165.14 105.02">
<g id="graph0" class="graph" transform="scale(1 1) rotate(0) translate(4 101.017)">
<title>G</title>
<polygon fill="white" stroke="none" points="-4,4 -4,-101.017 161.142,-101.017 161.142,4 -4,4"></polygon>
<text text-anchor="start" x="52.4653" y="-9.2" font-family="Times,serif" font-style="italic" font-size="14.00">fm = true</text>
<!-- 0 -->
<g id="node1" class="node"><title>0</title>
<ellipse fill="lightgrey" stroke="black" cx="15.8794" cy="-57.2171" rx="11.7898" ry="11.7898"></ellipse>
<ellipse fill="none" stroke="black" cx="15.8794" cy="-57.2171" rx="15.7597" ry="15.7597"></ellipse>
<text text-anchor="middle" x="15.8794" y="-53.0171" font-family="Times,serif" font-size="14.00">0</text>
</g>
<!-- 1 -->
<g id="node2" class="node"><title>1</title>
<ellipse fill="none" stroke="black" cx="146.142" cy="-57.2171" rx="11" ry="11.76"></ellipse>
<text text-anchor="middle" x="146.142" y="-53.0171" font-family="Times,serif" font-size="14.00">1</text>
<text text-anchor="middle" x="133.302" y="-32.7377" font-family="Times,serif" font-size="14.00">tp &lt;= 90</text>
</g>
<!-- 0&#45;&gt;1 -->
<g id="edge1" class="edge"><title>0-&gt;1</title>
<path fill="none" stroke="black" d="M29.3714,-65.9906C35.2653,-69.6079 42.5715,-73.3784 49.7588,-75.2171 78.7727,-82.6392 88.4077,-83.6564 117.142,-75.2171 122.06,-73.7728 126.93,-71.1689 131.197,-68.3822"></path>
<polygon fill="black" stroke="black" points="132.671,-70.34 136.95,-64.2823 129.827,-66.3496 132.671,-70.34"></polygon>
<text text-anchor="middle" x="83.4505" y="-84.4171" font-family="Times,serif" font-size="14.00">assess,tp:=0</text>
</g>
<!-- 1&#45;&gt;0 -->
<g id="edge2" class="edge"><title>1-&gt;0</title>
<path fill="none" stroke="black" d="M135.051,-55.9627C129.733,-55.3638 123.095,-54.714 117.142,-54.4171 87.2312,-52.9252 79.68,-53.1453 49.7588,-54.4171 46.2924,-54.5644 42.6259,-54.7987 39.0481,-55.0706"></path>
<polygon fill="black" stroke="black" points="38.6929,-52.6417 31.921,-55.6658 39.1007,-57.5247 38.6929,-52.6417"></polygon>
<text text-anchor="middle" x="83.4505" y="-58.4171" font-family="Times,serif" font-size="14.00">accept</text>
</g>
<!-- 1&#45;&gt;0 -->
<g id="edge3" class="edge"><title>1-&gt;0</title>
<path fill="none" stroke="black" d="M138.341,-48.5411C133.22,-42.7552 125.643,-35.6403 117.142,-32.4171 89.1395,-21.7989 78.1572,-22.9079 49.7588,-32.4171 43.8136,-34.4078 38.0836,-37.9445 33.1189,-41.7344"></path>
<polygon fill="black" stroke="black" points="31.5179,-39.8791 27.6753,-46.2224 34.6349,-43.6599 31.5179,-39.8791"></polygon>
<text text-anchor="middle" x="83.4505" y="-36.4171" font-family="Times,serif" font-size="14.00">reject</text>
</g>
</g>
</svg>