<svg xmlns="http://www.w3.org/2000/svg" xmlns:xlink="http://www.w3.org/1999/xlink" width="699pt" height="333pt" viewBox="0.00 0.00 699.07 332.81">
<g id="graph0" class="graph" transform="scale(1 1) rotate(0) translate(4 328.812)">
<title>G</title>
<polygon fill="white" stroke="none" points="-4,4 -4,-328.812 695.071,-328.812 695.071,4 -4,4"></polygon>
<!-- 0 -->
<g id="node1" class="node"><title>0</title>
<polygon fill="none" stroke="black" points="26.3365,-123.713 0.218736,-123.713 0.218736,-93.1114 26.3365,-93.1114 26.3365,-123.713"></polygon>
<text text-anchor="middle" x="13.2776" y="-104.212" font-family="Times,serif" font-size="14.00">&gt;-</text>
</g>
<!-- 2 -->
<g id="node3" class="node"><title>2</title>
<polygon fill="none" stroke="black" points="148.912,-123.713 96.7129,-123.713 96.7129,-93.1114 148.912,-93.1114 148.912,-123.713"></polygon>
<text text-anchor="middle" x="122.813" y="-104.212" font-family="Times,serif" font-size="14.00">Assess</text>
</g>
<!-- 0&#45;&gt;2 -->
<g id="edge1" class="edge"><title>0-&gt;2</title>
<path fill="none" stroke="black" d="M26.6132,-108.412C41.8129,-108.412 68.221,-108.412 89.3733,-108.412"></path>
<polygon fill="black" stroke="black" points="89.6089,-110.862 96.6089,-108.412 89.6089,-105.962 89.6089,-110.862"></polygon>
<text text-anchor="middle" x="61.659" y="-112.612" font-family="Times,serif" font-size="14.00">assess</text>
</g>
<!-- 1 -->
<g id="node2" class="node"><title>1</title>
<polygon fill="none" stroke="black" points="690.853,-238.713 664.735,-238.713 664.735,-208.111 690.853,-208.111 690.853,-238.713"></polygon>
<text text-anchor="middle" x="677.794" y="-219.212" font-family="Times,serif" font-size="14.00">&gt;-</text>
</g>
<!-- 4 -->
<g id="node5" class="node"><title>4</title>
<polygon fill="none" stroke="black" points="277.445,-123.713 239.231,-123.713 239.231,-93.1114 277.445,-93.1114 277.445,-123.713"></polygon>
<text text-anchor="middle" x="258.338" y="-104.212" font-family="Times,serif" font-size="14.00">App</text>
</g>
<!-- 1&#45;&gt;4 -->
<g id="edge2" class="edge"><title>1-&gt;4</title>
<path fill="none" stroke="black" d="M664.613,-231.048C659.273,-233.965 652.799,-236.941 646.516,-238.412 624.988,-243.452 618.631,-241.709 596.767,-238.412 458.157,-217.512 414.981,-218.542 295.391,-145.412 288.361,-141.113 281.734,-135.134 276.125,-129.235"></path>
<polygon fill="black" stroke="black" points="277.795,-127.43 271.278,-123.89 274.165,-130.721 277.795,-127.43"></polygon>
<text text-anchor="middle" x="500.112" y="-232.612" font-family="Times,serif" font-size="14.00">cancelpay</text>
</g>
<!-- 2&#45;&gt;4 -->
<g id="edge3" class="edge"><title>2-&gt;4</title>
<path fill="none" stroke="black" d="M148.928,-108.412C172.65,-108.412 208.053,-108.412 231.885,-108.412"></path>
<polygon fill="black" stroke="black" points="232.187,-110.862 239.187,-108.412 232.187,-105.962 232.187,-110.862"></polygon>
<text text-anchor="middle" x="194.073" y="-112.612" font-family="Times,serif" font-size="14.00">accept</text>
</g>
<!-- 2&#45;&gt;4 -->
<g id="edge4" class="edge"><title>2-&gt;4</title>
<path fill="none" stroke="black" d="M149.072,-93.8995C154.752,-91.2989 160.875,-88.9827 166.862,-87.612 190.44,-82.2146 197.92,-81.3555 221.285,-87.612 225.124,-88.64 228.977,-90.1864 232.662,-91.981"></path>
<polygon fill="black" stroke="black" points="231.746,-94.2698 239.073,-95.4209 234.063,-89.9522 231.746,-94.2698"></polygon>
<text text-anchor="middle" x="194.073" y="-92.612" font-family="Times,serif" font-size="14.00">reject</text>
</g>
<!-- 3 -->
<g id="node4" class="node"><title>3</title>
<polygon fill="none" stroke="black" points="432.632,-148.713 397.096,-148.713 397.096,-118.111 432.632,-118.111 432.632,-148.713"></polygon>
<text text-anchor="middle" x="414.864" y="-129.212" font-family="Times,serif" font-size="14.00">Xor</text>
</g>
<!-- 7 -->
<g id="node7" class="node"><title>7</title>
<polygon fill="none" stroke="black" points="576.999,-198.713 547.862,-198.713 547.862,-168.111 576.999,-168.111 576.999,-198.713"></polygon>
<text text-anchor="middle" x="562.431" y="-179.212" font-family="Times,serif" font-size="14.00">PP</text>
</g>
<!-- 3&#45;&gt;7 -->
<g id="edge8" class="edge"><title>3-&gt;7</title>
<path fill="none" stroke="black" d="M433.032,-140.039C444.14,-144.272 458.938,-149.811 472.13,-154.412 495.637,-162.611 522.879,-171.349 541.034,-177.064"></path>
<polygon fill="black" stroke="black" points="540.341,-179.415 547.753,-179.172 541.808,-174.739 540.341,-179.415"></polygon>
<text text-anchor="middle" x="500.112" y="-177.612" font-family="Times,serif" font-size="14.00">paypp</text>
</g>
<!-- 9 -->
<g id="node9" class="node"><title>9</title>
<polygon fill="none" stroke="black" points="578.605,-148.713 546.256,-148.713 546.256,-118.111 578.605,-118.111 578.605,-148.713"></polygon>
<text text-anchor="middle" x="562.431" y="-129.212" font-family="Times,serif" font-size="14.00">CC</text>
</g>
<!-- 3&#45;&gt;9 -->
<g id="edge13" class="edge"><title>3-&gt;9</title>
<path fill="none" stroke="black" d="M432.847,-133.412C459.008,-133.412 509.208,-133.412 538.547,-133.412"></path>
<polygon fill="black" stroke="black" points="538.88,-135.862 545.88,-133.412 538.88,-130.962 538.88,-135.862"></polygon>
<text text-anchor="middle" x="500.112" y="-137.612" font-family="Times,serif" font-size="14.00">paycc</text>
</g>
<!-- 4&#45;&gt;3 -->
<g id="edge5" class="edge"><title>4-&gt;3</title>
<path fill="none" stroke="black" d="M277.671,-111.378C305.648,-115.904 359.004,-124.536 389.977,-129.548"></path>
<polygon fill="black" stroke="black" points="389.669,-131.979 396.97,-130.679 390.452,-127.142 389.669,-131.979"></polygon>
<text text-anchor="middle" x="326.494" y="-128.612" font-family="Times,serif" font-size="14.00">payapp</text>
</g>
<!-- 6 -->
<g id="node6" class="node"><title>6</title>
<polygon fill="none" stroke="black" points="453.898,-324.713 375.83,-324.713 375.83,-294.111 453.898,-294.111 453.898,-324.713"></polygon>
<text text-anchor="middle" x="414.864" y="-305.212" font-family="Times,serif" font-size="14.00">HandleApp</text>
</g>
<!-- 4&#45;&gt;6 -->
<g id="edge6" class="edge"><title>4-&gt;6</title>
<path fill="none" stroke="black" d="M260.993,-123.957C265.065,-159.478 276.626,-245.166 295.391,-266.412 296.061,-267.17 335.54,-281.419 368.739,-293.309"></path>
<polygon fill="black" stroke="black" points="368.295,-295.752 375.711,-295.805 369.946,-291.139 368.295,-295.752"></polygon>
<text text-anchor="middle" x="326.494" y="-291.612" font-family="Times,serif" font-size="14.00">appeal</text>
</g>
<!-- 8 -->
<g id="node8" class="node"><title>8</title>
<polygon fill="none" stroke="black" points="448.229,-34.7126 381.498,-34.7126 381.498,-4.11136 448.229,-4.11136 448.229,-34.7126"></polygon>
<text text-anchor="middle" x="414.864" y="-15.212" font-family="Times,serif" font-size="14.00">Preassess</text>
</g>
<!-- 4&#45;&gt;8 -->
<g id="edge10" class="edge"><title>4-&gt;8</title>
<path fill="none" stroke="black" d="M260.667,-92.8152C263.346,-72.2806 271.384,-36.8831 295.391,-20.612 318.172,-5.17202 349.501,-5.54302 374.22,-9.41575"></path>
<polygon fill="black" stroke="black" points="374.016,-11.867 381.333,-10.6531 374.856,-7.03954 374.016,-11.867"></polygon>
<text text-anchor="middle" x="326.494" y="-25.612" font-family="Times,serif" font-size="14.00">submit</text>
</g>
<!-- 6&#45;&gt;0 -->
<g id="edge7" class="edge"><title>6-&gt;0</title>
<path fill="none" stroke="black" d="M375.821,-313.969C352.101,-315.477 321.273,-314.974 295.391,-306.412 181.217,-268.642 72.6542,-167.703 31.5752,-126.404"></path>
<polygon fill="black" stroke="black" points="33.1155,-124.476 26.4558,-121.213 29.6267,-127.917 33.1155,-124.476"></polygon>
<text text-anchor="middle" x="194.073" y="-276.612" font-family="Times,serif" font-size="14.00">assessapl</text>
</g>
<!-- 7&#45;&gt;1 -->
<g id="edge9" class="edge"><title>7-&gt;1</title>
<path fill="none" stroke="black" d="M577.04,-191.668C582.954,-195.015 590.053,-198.717 596.767,-201.412 616.944,-209.511 641.138,-215.705 657.604,-219.427"></path>
<polygon fill="black" stroke="black" points="657.221,-221.851 664.583,-220.961 658.272,-217.065 657.221,-221.851"></polygon>
<text text-anchor="middle" x="621.642" y="-221.612" font-family="Times,serif" font-size="14.00">cancelpp</text>
</g>
<!-- 10 -->
<g id="node10" class="node"><title>10</title>
<polygon fill="none" stroke="black" points="690.853,-118.713 664.735,-118.713 664.735,-88.1114 690.853,-88.1114 690.853,-118.713"></polygon>
<text text-anchor="middle" x="677.794" y="-99.212" font-family="Times,serif" font-size="14.00">&gt;-</text>
</g>
<!-- 7&#45;&gt;10 -->
<g id="edge16" class="edge"><title>7-&gt;10</title>
<path fill="none" stroke="black" d="M577.244,-181.145C597.977,-177.515 635.851,-169.936 646.516,-161.412 657.865,-152.342 665.431,-137.858 670.162,-125.633"></path>
<polygon fill="black" stroke="black" points="672.572,-126.171 672.627,-118.755 667.959,-124.518 672.572,-126.171"></polygon>
<text text-anchor="middle" x="621.642" y="-181.612" font-family="Times,serif" font-size="14.00">paidpp</text>
</g>
<!-- 8&#45;&gt;0 -->
<g id="edge12" class="edge"><title>8-&gt;0</title>
<path fill="none" stroke="black" d="M381.464,-8.54936C373.731,-6.41843 365.443,-4.50581 357.597,-3.412 330.215,0.405563 322.598,1.50322 295.391,-3.412 191.979,-22.0946 77.0063,-76.523 32.8917,-98.7685"></path>
<polygon fill="black" stroke="black" points="31.5623,-96.6958 26.4326,-102.052 33.7828,-101.064 31.5623,-96.6958"></polygon>
<text text-anchor="middle" x="194.073" y="-44.612" font-family="Times,serif" font-size="14.00">assessapp</text>
</g>
<!-- 8&#45;&gt;4 -->
<g id="edge11" class="edge"><title>8-&gt;4</title>
<path fill="none" stroke="black" d="M381.28,-30.2237C347.48,-41.5172 299.032,-57.9593 295.391,-60.612 285.971,-67.4749 277.887,-77.4957 271.775,-86.5916"></path>
<polygon fill="black" stroke="black" points="269.58,-85.4752 267.867,-92.6909 273.706,-88.1189 269.58,-85.4752"></polygon>
<text text-anchor="middle" x="326.494" y="-65.612" font-family="Times,serif" font-size="14.00">incomplete</text>
</g>
<!-- 9&#45;&gt;1 -->
<g id="edge14" class="edge"><title>9-&gt;1</title>
<path fill="none" stroke="black" d="M578.643,-130.238C596.746,-127.385 626.971,-125.651 646.516,-140.612 665.16,-154.884 672.332,-181.783 675.086,-201.051"></path>
<polygon fill="black" stroke="black" points="672.657,-201.37 675.94,-208.02 677.521,-200.774 672.657,-201.37"></polygon>
<text text-anchor="middle" x="621.642" y="-145.612" font-family="Times,serif" font-size="14.00">cancelcc</text>
</g>
<!-- 9&#45;&gt;10 -->
<g id="edge15" class="edge"><title>9-&gt;10</title>
<path fill="none" stroke="black" d="M576.87,-118.003C582.438,-112.726 589.333,-107.442 596.767,-104.612 616.474,-97.1096 640.939,-98.0804 657.596,-100.115"></path>
<polygon fill="black" stroke="black" points="657.383,-102.559 664.654,-101.098 658.059,-97.7058 657.383,-102.559"></polygon>
<text text-anchor="middle" x="621.642" y="-109.612" font-family="Times,serif" font-size="14.00">paidcc</text>
</g>
<!-- 10&#45;&gt;4 -->
<g id="edge17" class="edge"><title>10-&gt;4</title>
<path fill="none" stroke="black" d="M664.563,-99.4104C659.105,-97.8256 652.555,-96.1963 646.516,-95.412 624.59,-92.5641 618.874,-94.9863 596.767,-95.412 480.089,-97.6588 340.841,-104.272 284.673,-107.102"></path>
<polygon fill="black" stroke="black" points="284.486,-104.658 277.619,-107.46 284.734,-109.552 284.486,-104.658"></polygon>
<text text-anchor="middle" x="500.112" y="-103.612" font-family="Times,serif" font-size="14.00">paidapp</text>
</g>
</g>
</svg>