<svg xmlns="http://www.w3.org/2000/svg" xmlns:xlink="http://www.w3.org/1999/xlink" width="203pt" height="116pt" viewBox="0.00 0.00 202.83 115.90">
<g id="graph0" class="graph" transform="scale(1 1) rotate(0) translate(4 111.904)">
<title>G</title>
<polygon fill="white" stroke="none" points="-4,4 -4,-111.904 198.827,-111.904 198.827,4 -4,4"></polygon>
<text text-anchor="start" x="71.3079" y="-9.2" font-family="Times,serif" font-style="italic" font-size="14.00">fm = true</text>
<!-- 0 -->
<g id="node1" class="node"><title>0</title>
<ellipse fill="lightgrey" stroke="black" cx="15.8794" cy="-64.1044" rx="11.7898" ry="11.7898"></ellipse>
<ellipse fill="none" stroke="black" cx="15.8794" cy="-64.1044" rx="15.7597" ry="15.7597"></ellipse>
<text text-anchor="middle" x="15.8794" y="-59.9044" font-family="Times,serif" font-size="14.00">0</text>
</g>
<!-- 1 -->
<g id="node2" class="node"><title>1</title>
<ellipse fill="none" stroke="black" cx="183.827" cy="-64.1044" rx="11" ry="11.76"></ellipse>
<text text-anchor="middle" x="183.827" y="-59.9044" font-family="Times,serif" font-size="14.00">1</text>
<text text-anchor="middle" x="162.828" y="-39.625" font-family="Times,serif" font-size="14.00">toutcc &lt;= 1</text>
</g>
<!-- 0&#45;&gt;1 -->
<g id="edge1" class="edge"><title>0-&gt;1</title>
<path fill="none" stroke="black" d="M29.3714,-72.8779C35.2653,-76.4952 42.5715,-80.2657 49.7588,-82.1044 94.9991,-93.6775 110.023,-95.2636 154.827,-82.1044 159.745,-80.6601 164.616,-78.0562 168.882,-75.2695"></path>
<polygon fill="black" stroke="black" points="170.356,-77.2273 174.635,-71.1696 167.513,-73.2369 170.356,-77.2273"></polygon>
<text text-anchor="middle" x="102.293" y="-95.3044" font-family="Times,serif" font-size="14.00">paycc,toutcc:=0,cc</text>
</g>
<!-- 1&#45;&gt;0 -->
<g id="edge2" class="edge"><title>1-&gt;0</title>
<path fill="none" stroke="black" d="M172.752,-62.4024C167.438,-61.5896 160.799,-60.7077 154.827,-60.3044 108.236,-57.1572 96.3787,-57.6193 49.7588,-60.3044 46.2845,-60.5045 42.6139,-60.8226 39.0343,-61.1916"></path>
<polygon fill="black" stroke="black" points="38.5863,-58.7766 31.9066,-61.9993 39.138,-63.6455 38.5863,-58.7766"></polygon>
<text text-anchor="middle" x="102.293" y="-64.3044" font-family="Times,serif" font-size="14.00">cancelcc,cc</text>
</g>
<!-- 1&#45;&gt;0 -->
<g id="edge3" class="edge"><title>1-&gt;0</title>
<path fill="none" stroke="black" d="M176.39,-55.0117C171.34,-48.7205 163.695,-40.8641 154.827,-37.3044 111.492,-19.9075 93.7524,-21.6461 49.7588,-37.3044 43.5754,-39.5052 37.7123,-43.4219 32.6959,-47.5929"></path>
<polygon fill="black" stroke="black" points="30.7889,-46.0133 27.2276,-52.5187 34.0684,-49.654 30.7889,-46.0133"></polygon>
<text text-anchor="middle" x="102.293" y="-41.3044" font-family="Times,serif" font-size="14.00">paidcc,cc</text>
</g>
</g>
</svg>