<svg xmlns="http://www.w3.org/2000/svg" xmlns:xlink="http://www.w3.org/1999/xlink" width="167pt" height="106pt" viewBox="0.00 0.00 167.50 106.28">
<g id="graph0" class="graph" transform="scale(1 1) rotate(0) translate(4 102.283)">
<title>G</title>
<polygon fill="white" stroke="none" points="-4,4 -4,-102.283 163.496,-102.283 163.496,4 -4,4"></polygon>
<text text-anchor="start" x="53.642" y="-9.2" font-family="Times,serif" font-style="italic" font-size="14.00">fm = true</text>
<!-- 0 -->
<g id="node1" class="node"><title>0</title>
<ellipse fill="lightgrey" stroke="black" cx="15.8794" cy="-57.4831" rx="11.7898" ry="11.7898"></ellipse>
<ellipse fill="none" stroke="black" cx="15.8794" cy="-57.4831" rx="15.7597" ry="15.7597"></ellipse>
<text text-anchor="middle" x="15.8794" y="-53.2831" font-family="Times,serif" font-size="14.00">0</text>
</g>
<!-- 1 -->
<g id="node2" class="node"><title>1</title>
<ellipse fill="none" stroke="black" cx="148.496" cy="-57.4831" rx="11" ry="11.76"></ellipse>
<text text-anchor="middle" x="148.496" y="-53.2831" font-family="Times,serif" font-size="14.00">1</text>
<text text-anchor="middle" x="136.433" y="-33.0037" font-family="Times,serif" font-size="14.00">ts &lt;= 20</text>
</g>
<!-- 0&#45;&gt;1 -->
<g id="edge1" class="edge"><title>0-&gt;1</title>
<path fill="none" stroke="black" d="M29.3714,-66.2567C35.2653,-69.8739 42.5715,-73.6445 49.7588,-75.4831 79.786,-83.1645 89.7575,-84.2172 119.496,-75.4831 124.413,-74.0388 129.284,-71.4349 133.55,-68.6482"></path>
<polygon fill="black" stroke="black" points="135.024,-70.606 139.303,-64.5483 132.181,-66.6156 135.024,-70.606"></polygon>
<text text-anchor="middle" x="84.6272" y="-85.6831" font-family="Times,serif" font-size="14.00">submit,ts:=0</text>
</g>
<!-- 1&#45;&gt;0 -->
<g id="edge2" class="edge"><title>1-&gt;0</title>
<path fill="none" stroke="black" d="M137.405,-56.2288C132.086,-55.6298 125.448,-54.98 119.496,-54.6831 88.5399,-53.1392 80.725,-53.3669 49.7588,-54.6831 46.2924,-54.8304 42.6259,-55.0648 39.0481,-55.3367"></path>
<polygon fill="black" stroke="black" points="38.6929,-52.9077 31.921,-55.9318 39.1007,-57.7907 38.6929,-52.9077"></polygon>
<text text-anchor="middle" x="84.6272" y="-58.6831" font-family="Times,serif" font-size="14.00">incomplete</text>
</g>
<!-- 1&#45;&gt;0 -->
<g id="edge3" class="edge"><title>1-&gt;0</title>
<path fill="none" stroke="black" d="M140.695,-48.8072C135.573,-43.0212 127.996,-35.9064 119.496,-32.6831 90.5149,-21.6941 79.149,-22.8418 49.7588,-32.6831 43.8136,-34.6738 38.0836,-38.2105 33.1189,-42.0004"></path>
<polygon fill="black" stroke="black" points="31.5179,-40.1451 27.6753,-46.4885 34.6349,-43.9259 31.5179,-40.1451"></polygon>
<text text-anchor="middle" x="84.6272" y="-36.6831" font-family="Times,serif" font-size="14.00">assessapp</text>
</g>
</g>
</svg>