<svg xmlns="http://www.w3.org/2000/svg" xmlns:xlink="http://www.w3.org/1999/xlink" width="579pt" height="222pt" viewBox="0.00 0.00 578.70 221.84">
<g id="graph0" class="graph" transform="scale(1 1) rotate(0) translate(4 217.843)">
<title>G</title>
<polygon fill="white" stroke="none" points="-4,4 -4,-217.843 574.7,-217.843 574.7,4 -4,4"></polygon>
<text text-anchor="start" x="8" y="-9.2" font-family="Times,serif" font-style="italic" font-size="14.00">fm = (mk → cf) &amp;&amp; ((vo1 || vo2) → vi) &amp;&amp; (((cf &amp;&amp; mk) ↔ (vi &amp;&amp; vo2)) &amp;&amp; (cf ↔ (vi &amp;&amp; vo1)))</text>
<!-- 0 -->
<g id="node1" class="node"><title>0</title>
<ellipse fill="lightgrey" stroke="black" cx="138.752" cy="-126.043" rx="11.7898" ry="11.7898"></ellipse>
<ellipse fill="none" stroke="black" cx="138.752" cy="-126.043" rx="15.7597" ry="15.7597"></ellipse>
<text text-anchor="middle" x="138.752" y="-121.843" font-family="Times,serif" font-size="14.00">0</text>
</g>
<!-- 0&#45;&gt;0 -->
<g id="edge5" class="edge"><title>0-&gt;0</title>
<path fill="none" stroke="black" d="M123.822,-132.199C102.701,-143.992 107.677,-159.923 138.752,-159.923 166.427,-159.923 173.402,-147.286 159.676,-136.191"></path>
<polygon fill="black" stroke="black" points="160.866,-134.04 153.682,-132.199 158.15,-138.119 160.866,-134.04"></polygon>
<text text-anchor="middle" x="138.752" y="-164.123" font-family="Times,serif" font-size="14.00">i,vi &amp;&amp; !(vo1 || vo2)</text>
</g>
<!-- 1 -->
<g id="node2" class="node"><title>1</title>
<ellipse fill="none" stroke="black" cx="431.948" cy="-126.043" rx="11" ry="11.76"></ellipse>
<text text-anchor="middle" x="431.948" y="-121.843" font-family="Times,serif" font-size="14.00">1</text>
<text text-anchor="middle" x="402.946" y="-101.564" font-family="Times,serif" font-size="14.00">c &lt;= 5</text>
</g>
<!-- 0&#45;&gt;1 -->
<g id="edge3" class="edge"><title>0-&gt;1</title>
<path fill="none" stroke="black" d="M147.29,-139.631C152.983,-148.387 161.682,-159.038 172.631,-164.043 265.728,-206.6 311.586,-210.209 402.948,-164.043 411.748,-159.597 418.46,-150.937 423.104,-143.006"></path>
<polygon fill="black" stroke="black" points="425.377,-143.951 426.519,-136.623 421.057,-141.64 425.377,-143.951"></polygon>
<text text-anchor="middle" x="287.789" y="-201.243" font-family="Times,serif" font-size="14.00">o1_ca/i,c:=0,cf &amp;&amp; (vi &amp;&amp; vo1)</text>
</g>
<!-- 0&#45;&gt;1 -->
<g id="edge4" class="edge"><title>0-&gt;1</title>
<path fill="none" stroke="black" d="M154.998,-126.043C204.53,-126.043 360.76,-126.043 413.421,-126.043"></path>
<polygon fill="black" stroke="black" points="413.684,-128.494 420.684,-126.043 413.684,-123.594 413.684,-128.494"></polygon>
<text text-anchor="middle" x="287.789" y="-130.243" font-family="Times,serif" font-size="14.00">o2_co/i,c:=0,cf &amp;&amp; mk &amp;&amp; (vi &amp;&amp; vo2)</text>
</g>
<!-- 1&#45;&gt;0 -->
<g id="edge1" class="edge"><title>1-&gt;0</title>
<path fill="none" stroke="black" d="M422.808,-118.669C417.555,-114.423 410.341,-109.495 402.948,-107.243 305.026,-77.4192 271.561,-80.9568 172.631,-107.243 167.678,-108.559 162.694,-110.817 158.156,-113.32"></path>
<polygon fill="black" stroke="black" points="156.625,-111.381 151.882,-117.083 159.146,-115.583 156.625,-111.381"></polygon>
<text text-anchor="middle" x="287.789" y="-111.243" font-family="Times,serif" font-size="14.00">c &gt;= 2,b</text>
</g>
<!-- 1&#45;&gt;0 -->
<g id="edge6" class="edge"><title>1-&gt;0</title>
<path fill="none" stroke="black" d="M429.319,-114.183C426.634,-99.7638 419.78,-76.0232 402.948,-65.2434 316.747,-10.0385 260.558,-12.832 172.631,-65.2434 158.674,-73.5627 150.284,-90.0897 145.475,-103.815"></path>
<polygon fill="black" stroke="black" points="143.079,-103.265 143.277,-110.679 147.745,-104.76 143.079,-103.265"></polygon>
<text text-anchor="middle" x="287.789" y="-69.2434" font-family="Times,serif" font-size="14.00">c &gt;= 2,b/i,vi &amp;&amp; !(vo1 || vo2)</text>
</g>
<!-- 1&#45;&gt;1 -->
<g id="edge2" class="edge"><title>1-&gt;1</title>
<path fill="none" stroke="black" d="M421.427,-129.63C396.379,-140.122 399.885,-155.923 431.948,-155.923 461.005,-155.923 466.609,-142.946 448.76,-132.703"></path>
<polygon fill="black" stroke="black" points="449.833,-130.501 442.468,-129.63 447.683,-134.904 449.833,-130.501"></polygon>
<text text-anchor="middle" x="431.948" y="-160.123" font-family="Times,serif" font-size="14.00">i,vi &amp;&amp; !(vo1 || vo2)</text>
</g>
</g>
</svg>