<svg xmlns="http://www.w3.org/2000/svg" xmlns:xlink="http://www.w3.org/1999/xlink" width="201pt" height="116pt" viewBox="0.00 0.00 200.52 115.63">
<g id="graph0" class="graph" transform="scale(1 1) rotate(0) translate(4 111.63)">
<title>G</title>
<polygon fill="white" stroke="none" points="-4,4 -4,-111.63 196.52,-111.63 196.52,4 -4,4"></polygon>
<text text-anchor="start" x="58.0254" y="-9.2" font-family="Times,serif" font-style="italic" font-size="14.00">fm = !mk || cf</text>
<!-- 0 -->
<g id="node1" class="node"><title>0</title>
<ellipse fill="lightgrey" stroke="black" cx="15.8794" cy="-63.8298" rx="11.7898" ry="11.7898"></ellipse>
<ellipse fill="none" stroke="black" cx="15.8794" cy="-63.8298" rx="15.7597" ry="15.7597"></ellipse>
<text text-anchor="middle" x="15.8794" y="-59.6298" font-family="Times,serif" font-size="14.00">0</text>
</g>
<!-- 1 -->
<g id="node2" class="node"><title>1</title>
<ellipse fill="none" stroke="black" cx="181.52" cy="-63.8298" rx="11" ry="11.76"></ellipse>
<text text-anchor="middle" x="181.52" y="-59.6298" font-family="Times,serif" font-size="14.00">1</text>
</g>
<!-- 0&#45;&gt;1 -->
<g id="edge1" class="edge"><title>0-&gt;1</title>
<path fill="none" stroke="black" d="M29.3714,-72.6033C35.2653,-76.2206 42.5715,-79.9912 49.7588,-81.8298 94.0057,-93.1488 108.699,-94.7 152.52,-81.8298 157.438,-80.3855 162.308,-77.7816 166.575,-74.9949"></path>
<polygon fill="black" stroke="black" points="168.049,-76.9527 172.328,-70.895 165.205,-72.9623 168.049,-76.9527"></polygon>
<text text-anchor="middle" x="101.139" y="-95.0298" font-family="Times,serif" font-size="14.00">co,c:=0,cf &amp;&amp; mk</text>
</g>
<!-- 0&#45;&gt;1 -->
<g id="edge2" class="edge"><title>0-&gt;1</title>
<path fill="none" stroke="black" d="M31.9066,-61.7247C37.4991,-61.0385 43.9073,-60.3668 49.7588,-60.0298 95.355,-57.4036 106.952,-56.9518 152.52,-60.0298 156.066,-60.2693 159.847,-60.6775 163.446,-61.1397"></path>
<polygon fill="black" stroke="black" points="163.171,-63.5752 170.445,-62.1278 163.856,-58.7233 163.171,-63.5752"></polygon>
<text text-anchor="middle" x="101.139" y="-64.0298" font-family="Times,serif" font-size="14.00">ca,c:=0,cf</text>
</g>
<!-- 1&#45;&gt;0 -->
<g id="edge3" class="edge"><title>1-&gt;0</title>
<path fill="none" stroke="black" d="M174.083,-54.7372C169.033,-48.4459 161.387,-40.5895 152.52,-37.0298 110.136,-20.0149 92.7864,-21.7153 49.7588,-37.0298 43.5754,-39.2306 37.7123,-43.1473 32.6959,-47.3183"></path>
<polygon fill="black" stroke="black" points="30.7889,-45.7387 27.2276,-52.2441 34.0684,-49.3794 30.7889,-45.7387"></polygon>
<text text-anchor="middle" x="101.139" y="-41.0298" font-family="Times,serif" font-size="14.00">c &gt;= 2,b</text>
</g>
</g>
</svg>