<svg xmlns="http://www.w3.org/2000/svg" xmlns:xlink="http://www.w3.org/1999/xlink" width="123pt" height="73pt" viewBox="0.00 0.00 123.02 72.94">
<g id="graph0" class="graph" transform="scale(1 1) rotate(0) translate(4 68.9446)">
<title>G</title>
<polygon fill="white" stroke="none" points="-4,4 -4,-68.9446 119.025,-68.9446 119.025,4 -4,4"></polygon>
<text text-anchor="start" x="27.7091" y="-9.2" font-family="Times,serif" font-style="italic" font-size="14.00">fm = g → f</text>
<!-- 0 -->
<g id="node1" class="node"><title>0</title>
<ellipse fill="lightgrey" stroke="black" cx="15.8794" cy="-48.1446" rx="11.7898" ry="11.7898"></ellipse>
<ellipse fill="none" stroke="black" cx="15.8794" cy="-48.1446" rx="15.7597" ry="15.7597"></ellipse>
<text text-anchor="middle" x="15.8794" y="-43.9446" font-family="Times,serif" font-size="14.00">0</text>
</g>
<!-- 1 -->
<g id="node2" class="node"><title>1</title>
<ellipse fill="none" stroke="black" cx="104.025" cy="-48.1446" rx="11" ry="11.76"></ellipse>
<text text-anchor="middle" x="104.025" y="-43.9446" font-family="Times,serif" font-size="14.00">1</text>
</g>
<!-- 0&#45;&gt;1 -->
<g id="edge1" class="edge"><title>0-&gt;1</title>
<path fill="none" stroke="black" d="M31.8847,-48.1446C46.8811,-48.1446 69.9174,-48.1446 85.6871,-48.1446"></path>
<polygon fill="black" stroke="black" points="85.7777,-50.5947 92.7777,-48.1446 85.7777,-45.6947 85.7777,-50.5947"></polygon>
<text text-anchor="middle" x="62.3917" y="-52.3446" font-family="Times,serif" font-size="14.00">a/b,f</text>
</g>
<!-- 1&#45;&gt;0 -->
<g id="edge2" class="edge"><title>1-&gt;0</title>
<path fill="none" stroke="black" d="M95.4895,-40.4232C90.2572,-35.6396 82.8436,-29.931 75.0246,-27.3446 64.3635,-23.818 60.5444,-24.2194 49.7588,-27.3446 44.4956,-28.8696 39.2664,-31.5168 34.5781,-34.4219"></path>
<polygon fill="black" stroke="black" points="33.0105,-32.5235 28.5679,-38.462 35.7442,-36.5901 33.0105,-32.5235"></polygon>
<text text-anchor="middle" x="62.3917" y="-31.3446" font-family="Times,serif" font-size="14.00">c,g</text>
</g>
</g>
</svg>