<svg xmlns="http://www.w3.org/2000/svg" xmlns:xlink="http://www.w3.org/1999/xlink" width="147pt" height="167pt" viewBox="0.00 0.00 146.75 166.56">
<g id="graph0" class="graph" transform="scale(1 1) rotate(0) translate(4 162.559)">
<title>G</title>
<polygon fill="white" stroke="none" points="-4,4 -4,-162.559 142.755,-162.559 142.755,4 -4,4"></polygon>
<text text-anchor="start" x="8" y="-9.2" font-family="Times,serif" font-style="italic" font-size="14.00">fm = (vo1 || vo2) → vi</text>
<!-- 0 -->
<g id="node1" class="node"><title>0</title>
<ellipse fill="lightgrey" stroke="black" cx="69.3774" cy="-40.6794" rx="11.7898" ry="11.7898"></ellipse>
<ellipse fill="none" stroke="black" cx="69.3774" cy="-40.6794" rx="15.7597" ry="15.7597"></ellipse>
<text text-anchor="middle" x="69.3774" y="-36.4794" font-family="Times,serif" font-size="14.00">0</text>
</g>
<!-- 0&#45;&gt;0 -->
<g id="edge1" class="edge"><title>0-&gt;0</title>
<path fill="none" stroke="black" d="M67.6054,-56.7131C67.2438,-65.9552 67.8344,-74.5588 69.3774,-74.5588 70.5105,-74.5588 71.1301,-69.9188 71.236,-63.7935"></path>
<polygon fill="black" stroke="black" points="73.6849,-63.6826 71.1494,-56.7131 68.7853,-63.7426 73.6849,-63.6826"></polygon>
<text text-anchor="middle" x="69.3774" y="-78.7588" font-family="Times,serif" font-size="14.00">i/o1,vi &amp;&amp; vo1</text>
</g>
<!-- 0&#45;&gt;0 -->
<g id="edge2" class="edge"><title>0-&gt;0</title>
<path fill="none" stroke="black" d="M66.5358,-56.3473C64.6997,-73.3061 65.6469,-92.5588 69.3774,-92.5588 72.5833,-92.5588 73.7336,-78.3402 72.8284,-63.578"></path>
<polygon fill="black" stroke="black" points="75.2483,-63.1167 72.219,-56.3473 70.3657,-63.5283 75.2483,-63.1167"></polygon>
<text text-anchor="middle" x="69.3774" y="-96.7588" font-family="Times,serif" font-size="14.00">i/o2,vi &amp;&amp; vo2</text>
</g>
<!-- 0&#45;&gt;0 -->
<g id="edge3" class="edge"><title>0-&gt;0</title>
<path fill="none" stroke="black" d="M65.8412,-56.4728C62.1635,-80.3932 63.3422,-110.559 69.3774,-110.559 74.8232,-110.559 76.3148,-85.9972 73.8521,-63.6255"></path>
<polygon fill="black" stroke="black" points="76.2535,-63.0945 72.9136,-56.4728 71.3952,-63.732 76.2535,-63.0945"></polygon>
<text text-anchor="middle" x="69.3774" y="-114.759" font-family="Times,serif" font-size="14.00">i,vi &amp;&amp; !(vo1 || vo2)</text>
</g>
</g>
</svg>